<svg width="141" height="63" viewBox="0 0 141 63" fill="none" xmlns="http://www.w3.org/2000/svg">
<rect x="0.530029" y="0.932617" width="139.66" height="62.049" rx="31.0245" fill="#1E2330"/>
<path d="M49.6996 28.5095L45.2054 40.9677H47.2118L48.3554 37.6074H53.1004L54.244 40.9677H56.2905L51.7963 28.5095H49.6896H49.6996ZM48.8469 36.0527L50.7028 30.5859H50.753L52.6088 36.0527H48.8469ZM62.1791 31.7896C61.5974 31.7711 61.0216 31.9106 60.5129 32.1932C60.0042 32.4758 59.5816 32.8909 59.29 33.3945H59.2498V31.8899H57.4441V43.977H59.31V39.4732H59.3502C59.6286 39.9809 60.0445 40.3998 60.5502 40.6819C61.0559 40.964 61.6309 41.0979 62.2092 41.068C64.4864 41.068 66.0012 39.2525 66.0012 36.4338C66.0012 33.6152 64.4864 31.7896 62.1791 31.7896ZM61.6775 39.4832C60.263 39.4832 59.3 38.2594 59.3 36.4238C59.3 34.6183 60.263 33.3845 61.6876 33.3845C63.1321 33.3845 64.0851 34.5882 64.0851 36.4238C64.0851 38.2895 63.1321 39.4832 61.6775 39.4832ZM72.1707 31.7896C71.5889 31.77 71.0126 31.909 70.5037 32.1917C69.9948 32.4744 69.5723 32.8902 69.2816 33.3945H69.2515V31.8899H67.4458V43.977H69.3016V39.4732H69.3518C69.6302 39.9809 70.0461 40.3998 70.5518 40.6819C71.0575 40.964 71.6325 41.0979 72.2108 41.068C74.4881 41.068 76.0028 39.2525 76.0028 36.4338C76.0028 33.6152 74.478 31.7896 72.1707 31.7896ZM71.6792 39.4832C70.2547 39.4832 69.3016 38.2594 69.3016 36.4238C69.3016 34.6183 70.2547 33.3845 71.6792 33.3845C73.1338 33.3845 74.0868 34.5882 74.0868 36.4238C74.0868 38.2895 73.1338 39.4832 71.6792 39.4832ZM90.2479 37.3868C90.2479 39.7139 88.3921 41.1784 85.4427 41.1784C82.684 41.1784 80.8181 39.754 80.6977 37.4971H82.6037C82.7442 38.7309 83.938 39.5434 85.5832 39.5434C87.1481 39.5434 88.2917 38.7409 88.2917 37.6175C88.2917 36.6545 87.5995 36.0727 85.9844 35.6815L84.3794 35.2803C82.0821 34.7386 81.0187 33.6754 81.0187 31.93C81.0187 29.7834 82.8947 28.3089 85.5531 28.3089C88.1914 28.3089 89.9971 29.7834 90.0573 31.93H88.1714C88.061 30.6862 87.0277 29.9339 85.533 29.9339C84.0282 29.9339 83.005 30.6962 83.005 31.7996C83.005 32.6823 83.6571 33.2039 85.2622 33.6052L86.6365 33.9362C89.1946 34.538 90.2479 35.5612 90.2479 37.3868ZM94.2807 31.8899H96.0061V33.3644H94.2807V38.3798C94.2807 39.1522 94.6218 39.5133 95.3842 39.5133C95.5848 39.5133 95.7854 39.4932 95.9961 39.4732V40.9376C95.655 40.9978 95.314 41.0279 94.9628 41.0179C93.127 41.0179 92.4048 40.3358 92.4048 38.5704V33.3644H91.0906V31.8899H92.4048V29.7433H94.2807V31.8899ZM101.303 31.7796C98.6947 31.7796 97.0093 33.5751 97.0093 36.4338C97.0093 39.2926 98.6746 41.0881 101.313 41.0881C103.951 41.0881 105.627 39.2926 105.627 36.4338C105.627 33.5751 103.941 31.7796 101.313 31.7796H101.303ZM101.303 39.5434C99.7981 39.5434 98.8953 38.3999 98.8953 36.4338C98.8953 34.4778 99.7981 33.3143 101.303 33.3143C102.828 33.3143 103.721 34.4678 103.721 36.4238C103.721 38.3999 102.818 39.5434 101.313 39.5434H101.303ZM111.164 31.7896C111.375 31.7896 111.595 31.8197 111.806 31.8598V33.6052C111.533 33.5218 111.249 33.4845 110.963 33.4948C110.693 33.4844 110.424 33.5325 110.174 33.6358C109.925 33.7391 109.7 33.8952 109.516 34.0933C109.332 34.2915 109.193 34.527 109.109 34.7838C109.025 35.0406 108.997 35.3126 109.027 35.5812V40.9677H107.161V31.8899H108.937V33.4346H108.977C109.097 32.9507 109.38 32.5229 109.778 32.2232C110.176 31.9236 110.666 31.7704 111.164 31.7896ZM120.494 36.8952V36.2533C120.494 33.5048 118.919 31.7796 116.411 31.7796C113.853 31.7796 112.197 33.6252 112.197 36.474C112.197 39.3127 113.843 41.0881 116.491 41.0881C118.537 41.0881 120.143 39.9546 120.403 38.2996H118.628C118.464 38.7136 118.17 39.0629 117.79 39.2946C117.409 39.5263 116.964 39.6278 116.521 39.5835C116.186 39.5932 115.853 39.532 115.543 39.4039C115.234 39.2759 114.955 39.0839 114.725 38.8405C114.495 38.5971 114.318 38.3078 114.208 37.9916C114.097 37.6754 114.055 37.3394 114.083 37.0056V36.8952H120.504H120.494ZM114.274 34.7085C114.447 34.2858 114.741 33.9239 115.12 33.6686C115.498 33.4132 115.944 33.2759 116.401 33.2741C116.854 33.2674 117.299 33.4005 117.674 33.6553C118.049 33.9102 118.337 34.2744 118.497 34.6985C118.598 34.9794 118.648 35.2803 118.628 35.5812H114.093C114.093 35.2803 114.154 34.9794 114.274 34.6985V34.7085ZM51.4351 22.1099C51.4855 21.721 51.4485 21.3258 51.3269 20.953C51.2053 20.5802 51.0021 20.2392 50.7321 19.9548C50.4621 19.6704 50.132 19.4498 49.766 19.309C49.4 19.1682 49.0072 19.1107 48.6162 19.1408H46.4493V25.1191H48.6162C50.3918 25.1191 51.4251 24.0157 51.4251 22.1099H51.4351ZM47.3823 24.2765V19.9834H48.5058C48.7831 19.9693 49.0601 20.0163 49.3172 20.1211C49.5742 20.2258 49.8052 20.3857 49.9937 20.5895C50.1822 20.7933 50.3236 21.036 50.408 21.3004C50.4924 21.5649 50.5177 21.8446 50.4821 22.1199C50.5247 22.3974 50.5045 22.6809 50.423 22.9495C50.3415 23.2181 50.2007 23.465 50.011 23.672C49.8214 23.8789 49.5877 24.0407 49.3272 24.1453C49.0667 24.25 48.786 24.2948 48.5058 24.2765H47.3823ZM56.1902 21.2172C55.8885 20.8832 55.4891 20.6531 55.0488 20.5595C54.6086 20.4659 54.1501 20.5137 53.7387 20.6961C53.3272 20.8784 52.9839 21.186 52.7576 21.575C52.5313 21.964 52.4336 22.4144 52.4784 22.8622C52.4505 23.1596 52.485 23.4596 52.5796 23.743C52.6743 24.0264 52.8271 24.2868 53.0282 24.5078C53.2294 24.7287 53.4744 24.9052 53.7477 25.026C54.0209 25.1469 54.3164 25.2093 54.6152 25.2094C54.914 25.211 55.2099 25.1496 55.4834 25.0292C55.757 24.9088 56.0021 24.7321 56.2027 24.5107C56.4034 24.2892 56.5551 24.0279 56.648 23.7439C56.7409 23.4599 56.7729 23.1594 56.7419 22.8622C56.7695 22.5647 56.7347 22.2647 56.6397 21.9815C56.5447 21.6982 56.3916 21.4379 56.1902 21.2172ZM54.6152 24.427C53.8327 24.427 53.4013 23.8552 53.4013 22.8622C53.4013 21.8892 53.8327 21.3074 54.6051 21.3074C55.3876 21.3074 55.829 21.8892 55.829 22.8622C55.829 23.8452 55.3876 24.417 54.6152 24.417V24.427ZM58.6279 25.1292L57.3839 20.6153H58.2868L59.0893 24.0559H59.1596L60.0925 20.6053H60.9452L61.8782 24.0559H61.9484L62.7509 20.6053H63.6538L62.4098 25.1191H61.4769L60.5439 21.7989H60.4737L59.5508 25.1191H58.6279V25.1292ZM67.6364 22.4208C67.6364 21.6986 67.3254 21.3375 66.6633 21.3375C66.438 21.3257 66.2151 21.388 66.0285 21.5148C65.8419 21.6416 65.702 21.8259 65.63 22.0397C65.5799 22.1801 65.5698 22.3406 65.5799 22.481V25.1191H64.687V20.6053H65.5498V21.3275H65.62C65.7334 21.071 65.9236 20.8561 66.1644 20.7124C66.4052 20.5686 66.6847 20.5032 66.9642 20.525C67.293 20.5045 67.6193 20.5938 67.8918 20.7791C68.1642 20.9643 68.3673 21.2349 68.469 21.5482C68.5392 21.7588 68.5593 21.9795 68.5292 22.2002V25.1191H67.6364V22.4208ZM70.8465 25.1292H69.9437V18.8298H70.8465V25.1091V25.1292ZM75.7922 21.2172C75.4905 20.8832 75.0911 20.6531 74.6509 20.5595C74.2107 20.4659 73.7521 20.5137 73.3407 20.6961C72.9293 20.8784 72.5859 21.186 72.3596 21.575C72.1333 21.964 72.0356 22.4144 72.0804 22.8622C72.0526 23.1588 72.0868 23.458 72.1809 23.7406C72.2749 24.0233 72.4268 24.2833 72.6269 24.5041C72.8269 24.7249 73.0707 24.9016 73.3428 25.023C73.6149 25.1444 73.9092 25.2079 74.2072 25.2094C74.506 25.211 74.8019 25.1496 75.0754 25.0292C75.349 24.9088 75.5941 24.7321 75.7947 24.5107C75.9954 24.2892 76.1471 24.0279 76.24 23.7439C76.3329 23.4599 76.3649 23.1594 76.3339 22.8622C76.3622 22.5655 76.3287 22.2661 76.2354 21.9829C76.1422 21.6998 75.9913 21.439 75.7922 21.2172ZM74.2072 24.427C73.4347 24.427 73.0034 23.8552 73.0034 22.8622C73.0034 21.8892 73.4347 21.3074 74.2072 21.3074C74.9796 21.3074 75.421 21.8892 75.421 22.8622C75.421 23.8452 74.9796 24.417 74.2172 24.417L74.2072 24.427ZM81.0689 25.1292V22.0397C81.0689 21.0868 80.4369 20.515 79.3033 20.515C78.2801 20.515 77.5477 21.0165 77.4575 21.7889H78.3202C78.4205 21.478 78.7616 21.2874 79.2531 21.2874C79.8651 21.2874 80.1861 21.5582 80.1861 22.0397V22.4309L78.9622 22.5011C77.8888 22.5613 77.2769 23.0327 77.2769 23.8452C77.2773 24.036 77.3177 24.2245 77.3955 24.3987C77.4733 24.5729 77.5867 24.7288 77.7285 24.8564C77.8703 24.984 78.0373 25.0805 78.2187 25.1396C78.4001 25.1986 78.5919 25.219 78.7816 25.1994C79.0508 25.2134 79.3189 25.1557 79.5586 25.0324C79.7982 24.909 80.0009 24.7244 80.146 24.4972H80.2162V25.1292H81.0689ZM80.1861 23.464C80.1748 23.6068 80.1353 23.7459 80.0698 23.8734C80.0044 24.0008 79.9143 24.1139 79.8049 24.2063C79.7046 24.2966 79.5741 24.3668 79.4337 24.4069C79.3033 24.4471 79.1528 24.4571 79.0124 24.4471C78.5308 24.4471 78.1797 24.2063 78.1797 23.8051C78.1797 23.4039 78.4606 23.2032 79.0826 23.1531L80.1861 23.0829V23.464ZM84.1185 25.1994C84.404 25.2079 84.6864 25.1387 84.9356 24.9991C85.1847 24.8595 85.3912 24.6548 85.533 24.4069H85.6032V25.1191H86.4559V18.8399H85.5631V21.3375H85.5029C85.3729 21.0855 85.1734 20.8761 84.9281 20.7338C84.6828 20.5916 84.4018 20.5227 84.1185 20.5351C82.9749 20.5351 82.2426 21.4378 82.2426 22.8722C82.2426 24.3066 82.9649 25.2094 84.1185 25.2094V25.1994ZM84.3693 21.3375C85.1117 21.3375 85.5832 21.9293 85.5832 22.8722C85.5832 23.8151 85.1217 24.3969 84.3693 24.3969C83.6169 24.3969 83.1655 23.8252 83.1655 22.8622C83.1655 21.9093 83.6169 21.3375 84.3693 21.3375ZM92.2743 25.2094C92.574 25.2124 92.871 25.1521 93.1458 25.0323C93.4205 24.9126 93.6668 24.7361 93.8686 24.5144C94.0704 24.2928 94.223 24.031 94.3165 23.7463C94.41 23.4616 94.4422 23.1603 94.4111 22.8622C94.4442 22.4909 94.3799 22.1174 94.2247 21.7784C94.0696 21.4394 93.8288 21.1467 93.5261 20.9291C93.2234 20.7115 92.8692 20.5764 92.4985 20.5372C92.1277 20.498 91.7531 20.556 91.4116 20.7056C91.0011 20.8868 90.6582 21.1927 90.4313 21.5798C90.2044 21.9669 90.1052 22.4155 90.1476 22.8622C90.1198 23.1588 90.154 23.458 90.248 23.7406C90.3421 24.0233 90.494 24.2833 90.694 24.5041C90.8941 24.7249 91.1379 24.9016 91.41 25.023C91.682 25.1444 91.9764 25.2079 92.2743 25.2094ZM91.0705 22.8622C91.0705 21.8892 91.5019 21.3074 92.2743 21.3074C93.0568 21.3074 93.4882 21.8892 93.4882 22.8622C93.4882 23.8452 93.0568 24.417 92.2844 24.417C91.5019 24.417 91.0705 23.8452 91.0705 22.8622ZM97.1397 21.4077C97.0001 21.4639 96.8741 21.5494 96.7702 21.6584C96.6664 21.7675 96.5872 21.8975 96.5378 22.0397C96.4977 22.1801 96.4776 22.3406 96.4977 22.481V25.1191H95.6049V20.6053H96.4576V21.3275H96.5278C96.6412 21.071 96.8314 20.8561 97.0722 20.7124C97.313 20.5686 97.5925 20.5032 97.872 20.525C98.2025 20.5022 98.5311 20.5905 98.8056 20.7759C99.0801 20.9613 99.2847 21.2331 99.3868 21.5482C99.4571 21.7588 99.4771 21.9795 99.437 22.2002V25.1191H98.5442V22.4208C98.5442 21.6986 98.2332 21.3375 97.5711 21.3375C97.4306 21.3375 97.2701 21.3576 97.1397 21.4077ZM103.59 21.3776H102.868V20.6253H103.59V19.4818H104.483V20.6253H105.456V21.3776H104.483V23.6948C104.483 24.1762 104.684 24.3768 105.115 24.3768C105.235 24.3768 105.346 24.3768 105.456 24.3568V25.0991C105.297 25.1296 105.136 25.1464 104.975 25.1492C103.981 25.1492 103.59 24.7981 103.59 23.9255V21.3776ZM107.563 25.1191H106.67V18.8399H107.563V21.3375H107.633C107.752 21.0787 107.947 20.8627 108.193 20.7191C108.439 20.5755 108.723 20.5112 109.007 20.5351C109.226 20.5226 109.445 20.5588 109.648 20.641C109.852 20.7233 110.034 20.8494 110.183 21.0106C110.331 21.1717 110.442 21.3637 110.508 21.5728C110.574 21.782 110.592 22.0031 110.562 22.2202V25.1292H109.669V22.4409C109.669 21.7187 109.328 21.3476 108.706 21.3476C108.552 21.3326 108.395 21.3528 108.249 21.4067C108.104 21.4605 107.972 21.5466 107.864 21.6585C107.756 21.7671 107.673 21.8979 107.621 22.0416C107.569 22.1854 107.549 22.3388 107.563 22.4911V25.1292V25.1191ZM111.786 23.7549C111.919 24.1833 112.187 24.5569 112.551 24.8193C112.915 25.0817 113.354 25.2186 113.802 25.2094C114.23 25.2552 114.659 25.1499 115.017 24.9116C115.374 24.6733 115.637 24.3173 115.759 23.9054H114.906C114.802 24.0934 114.644 24.2463 114.453 24.3445C114.262 24.4428 114.046 24.482 113.833 24.4571C113.582 24.4589 113.337 24.3826 113.132 24.2387C112.927 24.0949 112.772 23.8907 112.689 23.6546C112.633 23.4937 112.613 23.3227 112.629 23.1531V23.113H115.819V22.802C115.819 21.3776 115.056 20.525 113.802 20.525C113.504 20.5225 113.209 20.584 112.936 20.7054C112.663 20.8267 112.42 21.0051 112.222 21.2285C112.025 21.4519 111.877 21.7152 111.79 22.0005C111.702 22.2857 111.677 22.5864 111.716 22.8823C111.676 23.1832 111.696 23.4741 111.786 23.7549ZM112.709 21.9996C112.766 21.8568 112.851 21.7268 112.959 21.617C113.067 21.5073 113.196 21.4201 113.337 21.3604C113.479 21.3007 113.631 21.2697 113.785 21.2692C113.939 21.2687 114.092 21.2988 114.234 21.3576C114.447 21.4457 114.626 21.5989 114.747 21.7953C114.868 21.9916 114.923 22.2211 114.906 22.4509H112.629C112.629 22.2904 112.649 22.15 112.709 21.9996ZM38.7851 34.9192C38.4305 36.0727 37.8955 37.1628 37.2001 38.1491C36.2671 39.5434 35.294 40.9076 33.7391 40.9276C32.2344 40.9677 31.7328 40.0449 29.9973 40.0449C28.2518 40.0449 27.71 40.9076 26.2655 40.9677C24.7808 41.0179 23.6572 39.4732 22.6841 38.0889C20.748 35.2803 19.2433 30.1345 21.2697 26.6538C21.7351 25.8167 22.4093 25.1144 23.2268 24.6151C24.0443 24.1159 24.9771 23.8368 25.9344 23.8051C27.4091 23.775 28.7834 24.8082 29.6963 24.8082C30.5892 24.8082 32.2845 23.5744 34.0401 23.765C34.8607 23.7912 35.664 24.0079 36.3865 24.3978C37.109 24.7878 37.7309 25.3403 38.2032 26.0119C37.4629 26.4675 36.8495 27.1026 36.4199 27.8583C35.9902 28.614 35.7583 29.4659 35.7455 30.3351C35.7466 31.3131 36.0354 32.2691 36.5758 33.0842C37.1163 33.8993 37.8846 34.5374 38.7851 34.9192ZM31.3917 23.0829C30.7998 23.3537 30.1678 23.4941 29.5158 23.4841C29.435 22.2053 29.8643 20.9465 30.7095 19.9834C31.5683 19.004 32.7647 18.3843 34.0601 18.248C34.1605 19.5669 33.7431 20.873 32.8965 21.8892C32.4952 22.3908 31.9735 22.802 31.3917 23.0829Z" fill="white"/>
</svg>
