<svg width="913" height="913" viewBox="0 0 913 913" fill="none" xmlns="http://www.w3.org/2000/svg">
<path d="M780.24 320.531L786.749 324.543C794.595 329.447 802.263 334.529 809.841 339.789L817.42 345.139L823.661 349.508L814.834 361.901L808.593 357.532C801.193 352.272 793.793 347.279 786.214 342.286L778.635 337.471L772.127 333.37L780.24 320.531ZM132.046 319.639L140.516 332.211L134.275 336.49C126.429 341.84 118.315 347.457 109.756 353.609L104.585 357.354L98.4326 361.812L89.5166 349.508L95.6687 345.05C104.496 338.63 112.877 332.746 120.901 327.218L132.046 319.639ZM706.683 281.746L713.638 284.956C722.019 288.79 730.311 292.891 738.513 297.082L746.716 301.361L753.403 304.928L746.27 318.391L739.583 314.824C731.648 310.545 723.534 306.532 715.421 302.609L707.218 298.776L700.353 295.566L706.683 281.746ZM204.087 278.09L210.864 291.643L204.087 295.031C195.706 299.221 187.236 303.769 178.855 308.583L172.436 312.328L165.927 316.162L158.17 303.055L164.768 299.132C173.505 294.05 182.154 289.235 190.803 284.777L197.311 281.479L204.087 278.09ZM628.668 252.947L635.89 255.176C644.717 257.94 653.544 260.793 662.281 263.914L670.93 267.124L678.063 269.799L672.713 284.064L665.58 281.389C657.11 278.269 648.64 275.237 640.081 272.473L631.432 269.709L624.21 267.48L628.668 252.947ZM282.192 248.489L286.561 263.112L279.249 265.251C269.977 268.015 260.882 271.047 251.966 274.346L245.279 276.842L238.147 279.606L232.708 265.43L239.751 262.666C248.935 259.099 258.208 255.89 267.748 252.858L274.881 250.629L282.192 248.489ZM562.957 237.433L570.357 238.86C574.994 239.752 579.541 240.643 584.177 241.713L591.042 243.229L598.443 244.923L595.055 259.723L587.654 258.029C583.196 257.049 578.738 256.068 574.28 255.176L567.504 253.839L560.015 252.323L562.957 237.433ZM364.041 232.44L366.002 247.598L358.513 248.578C348.705 249.916 339.165 251.432 329.892 253.126L322.938 254.463L315.448 255.89L312.506 241L319.906 239.484C329.357 237.612 339.076 235.918 348.973 234.491L356.462 233.51L364.041 232.44Z" fill="#CDCDCD"/>
<path d="M695.093 453.736L701.423 458.016C709.804 463.633 717.918 469.518 725.675 475.491L731.381 480.039L737.266 484.853L727.726 496.622L721.841 491.897C714.53 486.012 706.951 480.306 698.927 474.689L692.953 470.588L686.623 466.397L695.093 453.736ZM211.132 457.749L219.958 470.142L213.806 474.511C208.011 478.612 202.305 482.892 196.777 487.261L191.427 491.719L185.543 496.533L175.824 484.853L181.709 480.039C187.326 475.402 193.032 470.855 199.006 466.486L204.98 462.117L211.132 457.749ZM284.51 417.448L290.752 431.357L283.797 434.478C275.059 438.401 266.411 442.681 258.03 447.139L251.789 450.616L245.102 454.271L237.701 440.987L244.388 437.242C253.037 432.427 261.864 427.88 270.78 423.689L277.556 420.569L284.51 417.448ZM620.912 415.219L627.955 418.162C637.139 422.085 646.055 426.275 654.882 430.733L661.48 434.21L668.167 437.688L661.034 451.151L654.347 447.584C645.966 443.126 637.317 438.936 628.579 435.102L621.892 432.16L614.938 429.128L620.912 415.219ZM364.13 391.859L367.608 406.66L360.207 408.443C350.846 410.672 341.662 413.169 332.568 416.022L325.702 418.251L318.48 420.569L313.755 406.125L320.977 403.718C330.339 400.597 339.879 397.833 349.508 395.426L356.73 393.642L364.13 391.859ZM541.024 390.7L548.424 392.394C558.054 394.534 567.683 397.031 577.223 399.884L584.356 402.024L591.578 404.342L587.031 418.786L579.72 416.557C570.536 413.704 561.353 411.118 552.08 408.8L545.126 407.195L537.725 405.501L541.024 390.7Z" fill="#CDCDCD"/>
<path d="M615.651 589.438L621.714 593.896C630.54 600.405 638.743 607.359 646.5 614.938L650.245 618.683L655.594 624.121L644.717 634.732L639.367 629.293C632.413 622.16 624.834 615.473 616.81 609.232L612.708 606.2L606.556 601.653L615.651 589.438ZM307.959 583.732L316.429 596.303L310.099 600.583C301.718 606.2 293.693 612.442 286.204 619.129L282.459 622.517L276.931 627.777L266.5 616.632L272.117 611.461C280.052 604.06 288.433 597.284 297.171 591.043L301.629 587.922L307.959 583.732ZM539.062 553.685L546.284 555.914C556.538 559.035 566.702 562.868 576.509 567.416L581.413 569.645L588.279 572.944L581.681 586.674L574.815 583.375C565.721 579.006 556.27 575.173 546.641 572.052L541.826 570.536L534.604 568.307L539.062 553.685ZM386.42 552.08L389.986 566.881L382.586 568.664C372.778 570.982 363.06 574.013 353.698 577.758L348.973 579.631L341.929 582.573L336.134 568.486L343.088 565.543C353.074 561.353 363.238 557.965 373.759 555.201L379.02 553.863L386.42 552.08Z" fill="#CDCDCD"/>
<path d="M456.5 162.093C454.984 162.093 453.468 162.182 451.952 162.271C414.416 164.768 385.974 197.222 388.47 234.758L410.582 568.039C412.187 592.201 432.248 611.014 456.5 611.014C480.751 611.014 500.812 592.201 502.417 568.039L524.529 234.758C524.618 233.243 524.707 231.727 524.618 230.3C524.618 192.675 494.125 162.182 456.5 162.093ZM456.5 177.339C485.744 177.339 509.461 201.056 509.461 230.3C509.461 231.459 509.461 232.618 509.282 233.778L487.171 567.058C486.101 583.196 472.638 595.768 456.5 595.768C440.272 595.768 426.898 583.196 425.829 567.058L403.717 233.778C401.755 204.622 423.867 179.39 453.022 177.428C454.181 177.339 455.341 177.339 456.5 177.339Z" fill="#CDCDCD"/>
<path d="M456.5 651.939C429.217 651.939 407.016 674.051 407.016 701.423C407.016 728.706 429.128 750.907 456.5 750.907C483.783 750.907 505.984 728.796 505.984 701.423C505.984 674.14 483.872 651.939 456.5 651.939ZM456.5 667.186C475.402 667.186 490.738 682.521 490.738 701.423C490.738 720.325 475.402 735.661 456.5 735.661C437.598 735.661 422.263 720.325 422.263 701.423C422.263 682.521 437.598 667.186 456.5 667.186Z" fill="#CDCDCD"/>
</svg>
