<svg width="63" height="63" viewBox="0 0 63 63" fill="none" xmlns="http://www.w3.org/2000/svg">
<rect x="0.530029" y="0.682617" width="61.93" height="61.93" rx="30.965" fill="#1E2330"/>
<path d="M44.4897 31.6479C44.4897 38.2137 39.6242 43.6418 33.3034 44.5227C32.7124 44.6046 32.1078 44.6475 31.494 44.6475C30.7855 44.6475 30.0898 44.591 29.4123 44.4817C23.2245 43.4851 18.4983 38.1181 18.4983 31.6479C18.4983 24.4681 24.3173 18.6475 31.4949 18.6475C38.6726 18.6475 44.4915 24.4681 44.4915 31.6479H44.4897Z" fill="white"/>
<path d="M33.3036 29.0868V31.9189H36.8059L36.2513 35.7337H33.3036V44.5231C32.7126 44.605 32.1079 44.6479 31.4941 44.6479C30.7856 44.6479 30.0899 44.5914 29.4124 44.4821V35.7337H26.1824V31.9189H29.4124V28.4538C29.4124 26.304 31.1545 24.5605 33.3045 24.5605V24.5624C33.3108 24.5624 33.3163 24.5605 33.3227 24.5605H36.8068V27.8599H34.5302C33.8536 27.8599 33.3045 28.4091 33.3045 29.0859L33.3036 29.0868Z" fill="#1E2330"/>
</svg>
