<svg width="101" height="96" viewBox="0 0 101 96" fill="none" xmlns="http://www.w3.org/2000/svg">
<path d="M97.1246 2.16992H-0.157227V81.7795H97.1246V2.16992Z" fill="#5D90FF"/>
<path d="M92.8847 2.26074H4.08276V84.5576H92.8847V2.26074Z" fill="#3043E1"/>
<path d="M92.8847 84.5579V60.6349C89.7692 58.9563 85.6152 57.1601 85.6152 57.1601C85.6152 57.1601 83.9106 45.0294 77.8874 40.7325C73.4684 37.5824 65.5759 40.7325 58.9223 44.6495L40.4945 53.8304C40.4945 53.8304 24.8597 48.2762 15.4703 46.4663C7.17671 44.8636 4.89202 45.9206 -3.53052 63.0942L4.08989 74.5894V84.4888L92.8918 84.5579H92.8847Z" fill="#FF6DBA"/>
<path d="M45.0494 67.5765C46.3386 67.3278 47.9787 66.1258 51.5812 62.1467C53.5221 65.4971 55.5131 69.1585 56.924 70.1671C58.4281 71.2378 64.5229 48.4962 61.8372 44.5171C57.9267 38.7211 57.1246 38.5761 53.3502 40.6002C50.9724 41.8713 27.7173 58.0363 27.7173 58.0363C27.7173 58.0363 28.5051 70.2914 32.301 72.7576C33.4827 72.8198 36.2329 66.1258 36.2329 66.1258C36.2329 66.1258 42.7575 68.0186 45.0494 67.5765Z" fill="white"/>
<path d="M74.5785 64.958C74.5427 64.958 74.4998 64.958 74.4639 64.9511C74.0915 64.8889 73.848 64.5504 73.9053 64.1912C73.9196 64.1221 75.1658 56.9514 74.2992 51.3075C74.2419 50.9483 74.4998 50.6167 74.8722 50.5614C75.2375 50.5061 75.5884 50.7548 75.6457 51.1141C76.5481 56.9722 75.3019 64.1152 75.2446 64.4123C75.1873 64.73 74.9009 64.958 74.5714 64.958H74.5785Z" fill="#FF2EA1"/>
<path d="M15.857 71.8261C15.8141 71.8261 15.7783 71.8261 15.7353 71.8192C15.3629 71.757 15.1194 71.4116 15.1838 71.0593C15.1981 70.9695 16.7953 62.0925 13.5151 57.3121C13.3074 57.0081 13.3933 56.6006 13.7084 56.4002C14.0236 56.1999 14.4461 56.2828 14.6538 56.5867C18.2348 61.8093 16.6019 70.9073 16.5303 71.2942C16.473 71.612 16.1865 71.833 15.8642 71.833L15.857 71.8261Z" fill="#FF2EA1"/>
<path d="M15.9573 29.1052L21.3861 31.8477L22.6824 27.993L17.3539 27.3574L15.9573 29.1052Z" fill="black"/>
<path d="M100.648 76.123H-3.68091V92.1569H100.648V76.123Z" fill="#5D90FF"/>
<path d="M44.8132 31.8891C47.2411 28.6976 52.2689 25.582 53.2644 26.9014C54.31 28.29 52.6986 35.1981 49.0316 37.5953C47.0048 38.9216 43.0728 34.1826 44.8203 31.8891H44.8132Z" fill="#237AFF"/>
<path d="M50.7935 58.4241C48.0289 62.4032 44.4551 64.9039 43.9179 64.9246C43.2662 64.9661 40.8311 64.5999 37.2931 63.3427C36.5339 63.0732 34.8437 62.3962 34.8437 62.3962C29.6011 62.3962 26.858 61.512 24.1006 59.7435C19.1015 56.5312 17.0675 49.3191 22.3746 42.2382C20.0827 33.8379 20.9565 29.6723 23.191 27.4617C26.3853 24.2909 30.5607 21.9006 35.2734 21.272C41.1176 20.4845 41.8266 23.676 47.0621 33.1471L50.2993 36.311C50.2993 36.311 55.9215 41.3471 56.2939 43.5784C56.6878 45.9134 54.1023 53.6505 50.7863 58.4241H50.7935Z" fill="#237AFF"/>
<path d="M36.2331 56.3858C34.8365 54.4377 32.2295 54.9834 34.1633 56.8555C36.097 58.7276 37.8732 58.6793 36.2331 56.3858Z" fill="#005EE4"/>
<path d="M47.1049 33.8034C46.9545 34.3699 47.5275 35.6686 48.874 34.2663C50.2204 32.8639 50.6215 31.2958 49.5758 31.4477C48.6591 31.579 47.3914 32.7119 47.1121 33.8034H47.1049Z" fill="#005EE4"/>
<path d="M50.0272 35.7575C49.8123 36.1375 49.6762 36.7937 51.1874 38.0718C51.9179 38.6935 53.2071 37.5122 52.319 36.6418C51.4309 35.7713 50.4139 35.0736 50.0343 35.7575H50.0272Z" fill="#FFE535"/>
<path d="M100.648 -8.92383H-3.68115V3.18617H100.648V-8.92383Z" fill="#5D90FF"/>
<path d="M32.7809 45.4092C33.2035 45.2503 39.8212 39.0951 41.096 40.8291C42.3709 42.563 36.9707 47.4609 34.3852 48.8495C31.7997 50.238 24.0075 49.2294 25.3826 47.2053C26.7577 45.1812 32.7809 45.4023 32.7809 45.4023V45.4092Z" fill="black"/>
<path d="M40.8167 42.874C39.5347 43.178 37.9734 43.7306 36.2831 44.532C33.1103 46.0241 30.3888 47.9308 29.1641 49.4091C31.0978 49.6095 33.2536 49.4644 34.3924 48.8496C36.2545 47.8479 39.5848 45.0225 40.8167 42.874Z" fill="#FF6DBA"/>
<path d="M30.7771 38.3318C30.8702 39.6029 29.2874 40.2177 26.9311 40.9292C24.5748 41.6408 22.8129 42.1312 22.2328 40.9154C21.7673 39.9344 23.1997 37.4268 25.556 36.7083C27.9123 35.9899 30.6983 37.2472 30.7771 38.3318Z" fill="white"/>
<path d="M28.4996 40.4173C28.0269 40.59 27.5041 40.7558 26.9383 40.9285C26.0717 41.1841 25.291 41.419 24.6178 41.5434C24.4889 41.3707 24.3886 41.1772 24.317 40.9631C23.966 39.8716 24.5891 38.7179 25.7207 38.3794C26.8523 38.0409 28.0484 38.6419 28.3993 39.7334C28.4709 39.9614 28.4996 40.1963 28.4996 40.4173Z" fill="black"/>
<path d="M40.8039 34.8786C40.897 36.1497 39.3142 36.7646 36.9579 37.4761C34.6016 38.1876 32.8398 38.6781 32.2596 37.4623C31.7941 36.4813 33.2265 33.9737 35.5828 33.2552C37.9391 32.5368 40.7252 33.794 40.8039 34.8786Z" fill="white"/>
<path d="M38.5265 36.9642C38.0538 37.1369 37.5309 37.3027 36.9651 37.4754C36.0985 37.731 35.3179 37.9659 34.6446 38.0902C34.5157 37.9175 34.4155 37.7241 34.3438 37.51C33.9929 36.4185 34.616 35.2648 35.7476 34.9263C36.8792 34.5878 38.0752 35.1888 38.4262 36.2803C38.4978 36.5083 38.5265 36.7432 38.5265 36.9642Z" fill="black"/>
<path d="M34.1417 31.0674C33.9984 32.1934 31.592 32.4352 29.1426 32.7668C26.6932 33.0984 24.6162 33.3057 24.2724 32.1727C23.9931 31.2539 25.6475 29.4924 28.0969 29.1608C30.5463 28.8292 34.2634 30.1141 34.1417 31.0674Z" fill="#252147"/>
<path d="M35.9895 23.9935C35.9895 23.9935 38.396 30.4526 40.7738 32.0139C42.2133 32.9603 44.3834 32.1935 46.3315 30.2039L45.6439 28.7049C43.7317 24.9123 40.9743 21.7069 38.1739 21.251L35.9895 23.9866V23.9935Z" fill="#252147"/>
<path d="M85.2856 3.18652H83.9248V30.225H85.2856V3.18652Z" fill="white"/>
<path d="M86.2523 30.563C86.2523 31.4404 85.5146 32.1519 84.605 32.1519C83.6954 32.1519 82.9578 31.4404 82.9578 30.563C82.9578 29.6857 83.6954 29.6719 84.605 29.6719C85.5146 29.6719 86.2523 29.6926 86.2523 30.563Z" fill="white"/>
<path d="M82.9651 33.7547C82.9651 32.373 83.7028 31.2539 84.6123 31.2539C85.5219 31.2539 86.2596 32.373 86.2596 33.7547C86.2596 35.1363 85.5219 35.1639 84.6123 35.1639C83.7028 35.1639 82.9651 35.1363 82.9651 33.7547Z" fill="white"/>
<path d="M50.7718 54.591C47.8497 59.2816 43.4308 62.1623 37.2929 63.3436C36.5337 63.0742 34.8435 62.3972 34.8435 62.3972C41.2965 61.3195 46.5677 58.7911 49.6044 53.914C52.0252 50.0178 51.6098 44.5051 51.6026 44.4498C51.574 44.0906 51.8533 43.7659 52.2257 43.7383C52.6053 43.7106 52.9276 43.9801 52.9563 44.3393C52.9777 44.5811 53.4218 50.3148 50.7647 54.5841L50.7718 54.591Z" fill="black"/>
<path d="M37.7126 16.5389C37.7774 15.721 36.9155 14.9906 35.7875 14.9074C34.6596 14.8243 33.6926 15.4199 33.6278 16.2378C33.563 17.0557 34.4249 17.7862 35.5529 17.8693C36.6809 17.9524 37.6478 17.3568 37.7126 16.5389Z" fill="black"/>
<path d="M40.502 19.7861L39.8359 20.9398L39.3919 21.6997L37.5513 24.8705C34.2567 29.803 32.9246 30.1691 27.9899 29.4506C25.6265 29.1121 23.7429 28.8842 22.2603 28.6217C18.4215 27.9447 17.6193 28.1105 17.2469 28.4973C16.409 29.3677 19.0804 30.176 21.3078 31.0395C21.229 31.4057 21.1574 31.7994 21.1144 32.2139C19.7823 31.7856 14.9909 30.1484 14.7187 28.9463C14.2245 26.7081 18.357 24.9051 22.9479 23.7721H22.9694L25.0392 23.2955L38.8404 20.1592L40.4948 19.7861H40.502Z" fill="#00F57A"/>
<path d="M35.5671 16.5469C38.1168 16.8301 41.3326 18.0529 43.8321 20.1391C45.7229 21.7211 45.5367 22.9162 44.6844 26.9436C44.6844 26.9436 44.4266 26.8469 43.9897 26.688C42.6862 26.2183 39.7999 25.2373 37.5868 24.8159L35.5671 16.5469Z" fill="#00F57A"/>
<path d="M37.5868 24.8162C32.8313 23.8007 27.2091 23.4 22.9548 23.78C23.8572 19.8561 24.3443 17.8735 29.6871 16.9133C31.9503 16.5057 33.8411 16.3606 35.5528 16.561C36.4409 16.6784 37.0067 17.6455 37.2216 19.6765C37.4006 21.4243 37.5868 24.8093 37.5868 24.8093V24.8162Z" fill="white"/>
<path d="M5.87316 61.0904C-2.2629 60.0887 -7.78482 59.7847 -12.698 66.2922C-17.6111 72.7997 -20.1966 83.7422 -9.87612 84.5781C0.644891 85.4278 5.5652 83.459 5.5652 83.459C5.5652 83.459 12.6484 87.9216 15.9931 86.4709C18.2921 85.4692 20.3333 82.927 23.0692 76.5508C25.8051 70.1746 26.6215 66.7136 22.2097 64.8691C17.7979 63.0247 12.2689 61.8779 5.87316 61.0904Z" fill="url(#paint0_linear_7_3330)"/>
<path d="M14.3888 79.9912C13.5723 84.3433 14.532 85.6006 15.8642 84.668C17.891 83.2449 19.1086 80.2744 19.1086 80.2744L14.3959 79.9912H14.3888Z" fill="black"/>
<path d="M20.3907 66.9199C20.3907 66.9199 16.8455 69.3792 14.3889 79.9902C14.3889 79.9902 20.0183 81.6343 21.7586 81.8554C23.0191 82.0142 23.2698 81.5376 24.6306 79.099C25.9914 76.6604 27.9824 70.0424 27.2949 68.9716C26.6933 68.0321 23.0191 67.1203 20.3907 66.9268V66.9199Z" fill="white"/>
<path d="M21.1641 79.6454C21.1641 79.6454 25.4398 81.3102 27.8749 81.6418C28.6555 84.2808 29.9948 85.4482 29.9948 85.4482C29.9948 85.4482 26.2491 84.6952 25.5544 85.9249C24.8597 87.1545 24.5016 88.5983 27.2804 89.8073C30.0593 91.0093 34.6215 92.7432 36.2473 89.5517C37.8229 89.7106 38.3099 91.0231 41.6116 86.3394L41.9554 88.5776C41.9554 88.5776 38.3601 93.3304 39.6707 94.7535C41.1819 96.3977 42.9509 96.9365 46.0951 93.061C48.9885 89.4895 48.8095 89.0059 49.1318 82.9337C49.4541 76.8614 49.1318 76.5298 44.2186 74.5955C40.6304 73.1793 29.2428 70.6993 26.1775 69.9809C25.669 69.8634 24.8668 69.7943 24.4729 70.5473C22.8256 73.7182 21.1641 79.6454 21.1641 79.6454Z" fill="#237AFF"/>
<path d="M37.4863 89.8075C37.1067 89.7453 36.7271 89.6003 36.2473 89.5519C36.1685 89.7039 36.0825 89.8489 35.9966 89.9802C37.5364 86.0149 36.2473 83.4796 36.2329 83.452C36.0611 83.1273 36.1971 82.7335 36.5337 82.5747C36.8703 82.4158 37.2786 82.5401 37.4433 82.8648C37.5149 82.9822 38.8686 85.6764 37.4863 89.8144V89.8075Z" fill="#005EE4"/>
<path d="M83.3163 61.3242C86.1095 62.9269 88.0289 65.3586 88.2939 68.564L80.0862 69.6693L83.3163 61.3242Z" fill="#237AFF"/>
<path d="M65.189 69.1168C61.5865 69.8352 59.7531 71.7557 61.7369 77.8349C63.3699 82.8364 75.5883 77.8901 75.5883 77.8901C75.5883 77.8901 87.3841 80.5912 89.8407 77.0197C92.813 72.6952 91.8747 67.9631 88.7091 67.7075C80.1362 67.0167 70.5534 68.046 65.1819 69.1237L65.189 69.1168Z" fill="#FFC200"/>
<path d="M69.8228 63.1964C66.9437 63.1135 62.4746 63.2103 62.9974 67.9216C63.5202 72.633 65.9338 76.6052 70.2239 74.8919C72.129 76.9575 73.0529 76.619 75.1871 75.9765C76.8631 75.4722 76.8487 73.7866 76.8487 73.7866C77.8729 74.2011 78.8684 73.759 79.9642 72.5639C82.7001 69.6003 85.7082 62.6645 83.3089 61.3174C80.573 59.7838 79.4629 60.5023 77.4145 62.9616C76.4119 60.6888 75.2373 60.0739 72.659 61.2345C70.5748 62.1671 69.8228 63.1895 69.8228 63.1895V63.1964Z" fill="#237AFF"/>
<path d="M70.2527 74.9195C70.2527 74.9195 70.2312 74.8988 70.224 74.8919C69.7442 75.0853 69.3001 75.2027 68.8704 75.2511C67.8534 73.5931 66.1775 69.9663 67.3449 65.6902C67.438 65.3379 67.8176 65.1237 68.1757 65.2274C68.541 65.3172 68.763 65.6764 68.6556 66.0287C67.524 70.1598 69.3932 73.6208 70.2455 74.9195H70.2527Z" fill="#005EE4"/>
<path d="M76.8632 73.7802C76.8632 73.7802 76.8489 74.4433 76.4765 75.0305C75.3449 74.6368 74.4281 73.6973 73.9268 72.4607C73.4326 71.2172 72.9241 68.5783 75.13 64.7996C75.3162 64.4818 75.7316 64.3713 76.0539 64.5509C76.3833 64.7305 76.498 65.1312 76.3117 65.442C74.9008 67.8599 74.4926 70.2363 75.1945 71.984C75.5597 72.9028 76.3619 73.5177 76.8561 73.7733L76.8632 73.7802Z" fill="#005EE4"/>
<path d="M59.216 72.9089C56.4658 73.2958 55.6421 74.0419 56.122 77.3025C56.6019 80.5632 59.0369 79.9691 61.2572 79.3197C63.4774 78.6703 64.652 77.5236 64.0647 75.3268C63.4774 73.13 62.8042 72.4047 59.216 72.9089Z" fill="#237AFF"/>
<defs>
<linearGradient id="paint0_linear_7_3330" x1="-20.9415" y1="65.5047" x2="46.5857" y2="90.6251" gradientUnits="userSpaceOnUse">
<stop offset="0.23" stop-color="#FF6DBA"/>
<stop offset="0.31" stop-color="#FF76BE"/>
<stop offset="0.58" stop-color="#FF91CC"/>
<stop offset="0.82" stop-color="#FFA2D5"/>
<stop offset="1" stop-color="#FFA8D8"/>
</linearGradient>
</defs>
</svg>
