<svg width="135" height="116" viewBox="0 0 135 116" fill="none" xmlns="http://www.w3.org/2000/svg">
<path d="M56.4487 6.75098L134.131 6.75098V0.250248L56.4487 0.250248V6.75098Z" fill="#D9D9E6"/>
<path d="M130.201 6.75098H82.5928V115.715H130.201V6.75098Z" fill="#D9D9E6"/>
<path d="M2.79144 115.715L82.5928 115.715L82.5928 6.75092L2.79144 6.75092L2.79144 115.715Z" fill="white"/>
<path d="M-1.52588e-05 6.75098L82.5928 6.75098V0.250248L-1.52588e-05 0.250248V6.75098Z" fill="white"/>
<path d="M76.7618 13.457H8.62793V103.573H76.7618V13.457Z" fill="#D9D9E6"/>
<path d="M76.7679 13.457H46.2803V103.573H76.7679V13.457Z" fill="#4354ED"/>
<path d="M76.7679 13.457H46.2803V23.4358H76.7679V13.457Z" fill="#5566FA"/>
<path d="M80.7515 55.7002H4.64453V61.3243H80.7515V55.7002Z" fill="white"/>
<path d="M56.4483 69.6865H50.9067V103.568H56.4483V69.6865Z" fill="#FFE535"/>
<path d="M51.491 78.293H42.0249V103.567H51.491V78.293Z" fill="#FFE535"/>
<path d="M75.3452 69.6865V103.568H59.8949V103.608H59.8831V103.568H55.9585V69.6865H75.3452Z" fill="#FFC200"/>
<path d="M69.5795 76.665L69.5382 103.567H58.9448L58.9861 76.665H69.5795Z" fill="#71DAFF"/>
<path d="M74.5662 66.0547H67.4902V103.551H74.5662V66.0547Z" fill="#00F57A"/>
<path d="M76.7674 66.0547H73.1733V103.625H76.7674V66.0547Z" fill="#00CF71"/>
<path d="M67.4904 76.665H66.3691V103.624H67.4904V76.665Z" fill="#3FBEFF"/>
<path d="M50.8361 78.293H49.7148V103.624H50.8361V78.293Z" fill="#FFC200"/>
<path d="M130.207 6.75098H2.79761V7.83253H130.207V6.75098Z" fill="#B4B4CA"/>
<path d="M130.207 108.896H2.79761V109.978H130.207V108.896Z" fill="#B4B4CA"/>
<path d="M23.0695 90.4578C22.0367 86.4731 22.6977 82.2494 31.8806 81.8111C32.5887 81.7769 32.8012 82.0957 32.6241 82.8471C31.6032 87.1904 29.2012 88.5622 24.1082 90.4521C24.0019 90.492 23.1816 90.4123 23.0695 90.4521V90.4578Z" fill="#00F57A"/>
<path d="M24.214 90.4351C24.1786 90.4351 24.1432 90.4351 24.1019 90.4237C23.8363 90.3668 23.6652 90.1106 23.7301 89.8488C24.8278 85.1981 28.9589 83.8433 29.136 83.7864C29.3956 83.7067 29.6789 83.8433 29.7615 84.0938C29.8441 84.3442 29.7025 84.6175 29.4428 84.6972C29.2894 84.7484 25.6658 85.9552 24.6921 90.0651C24.6389 90.2871 24.4324 90.4351 24.2081 90.4351H24.214Z" fill="#00CF71"/>
<path d="M24.173 89.9621C20.0891 88.0438 15.4977 90.0816 16.2354 94.8006C16.9731 99.5196 19.6878 103.573 21.9776 103.573H27.0117C28.6051 103.573 32.0103 98.0396 31.9277 93.9752C31.8333 89.427 27.9559 88.2715 24.173 89.9621Z" fill="#FF6DBA"/>
<path d="M17.8346 94.3229C17.1855 92.7632 19.251 90.287 21.2222 90.4065C23.1933 90.5261 18.3304 95.5126 17.8346 94.3229Z" fill="#FFA8D8"/>
<path d="M17.1918 103.567H17.1738V103.608H17.1918V103.567Z" fill="#00CF71"/>
<path d="M35.6748 24.5674V55.6536H17.191V55.6934H17.1733V55.6536H11.5845V24.5674H35.6748Z" fill="#00CF71"/>
<path d="M43.866 31.0234H23.7651V55.6943H43.866V31.0234Z" fill="#FFC200"/>
<path d="M17.1733 24.5615H11.5845V55.6933H17.1733V24.5615Z" fill="#00F57A"/>
<path d="M24.4147 31.0234H18.3892V55.6943H24.4147V31.0234Z" fill="#FFE535"/>
<path d="M50.5524 22.3203H39.6758V55.6892H50.5524V22.3203Z" fill="#71DAFF"/>
<path d="M57.0209 19.291H49.7974V55.6882H57.0209V19.291Z" fill="#71DAFF"/>
<path d="M71.0256 19.291V55.6484H59.3464V55.6939H59.3346V55.6484H55.9766V19.291H71.0256Z" fill="#3FBEFF"/>
<path d="M69.0189 31.3418L68.9776 55.6939H60.4321L60.4734 31.3418H69.0189Z" fill="#FF6DBA"/>
<path d="M69.0129 31.3418H65.2949V55.6939H69.0129V31.3418Z" fill="#FF2EA1"/>
<path d="M75.6877 22.3701H66.3691V55.6934H75.6877V22.3701Z" fill="#00F57A"/>
<path d="M49.7976 22.3135H48.6763V55.6937H49.7976V22.3135Z" fill="#3FBEFF"/>
<path d="M76.7613 22.3701H74.4951V55.6934H76.7613V22.3701Z" fill="#00CF71"/>
</svg>
