<svg width="143" height="223" viewBox="0 0 143 223" fill="none" xmlns="http://www.w3.org/2000/svg">
<g clip-path="url(#clip0_7_3228)">
<g clip-path="url(#clip1_7_3228)">
<path d="M136.229 145.105C137.058 146.636 138.2 147.934 139.554 148.882C140.424 149.559 141.217 150.357 141.914 151.255C141.378 151.739 140.949 152.356 140.659 153.062C140.369 153.768 140.225 154.546 140.236 155.342C137.573 155.297 135.883 153.424 133.669 152.772C131.617 152.061 129.66 150.993 127.871 149.609C127.601 149.801 127.39 150.08 127.265 150.412C127.14 150.745 127.106 151.117 127.166 151.483C127.992 158.406 128.964 165.305 129.57 172.276C130.184 176.573 129.508 180.89 127.651 184.54C127.495 184.686 127.312 184.793 127.113 184.856C126.916 184.92 126.706 184.938 126.496 184.909C126.287 184.881 126.083 184.807 125.895 184.691C125.706 184.575 125.538 184.42 125.4 184.234C124.757 183.482 124.173 182.668 123.658 181.803C121.167 177.352 119.437 172.452 118.565 167.372C118.433 166.832 118.247 166.308 118.009 165.81C116.823 166.584 116.33 168.253 114.537 168.268C113.487 166.73 113.828 164.827 113.84 163.034C113.851 161.242 114.134 159.676 114.288 158.064C114.487 157.706 114.611 157.299 114.654 156.872C114.696 156.444 114.655 156.006 114.533 155.587C114.041 156.206 113.732 156.987 113.647 157.831C112.62 159.722 111.717 161.701 110.947 163.753C110.566 164.653 110.006 165.433 109.306 166.036C108.606 166.638 107.785 167.048 106.903 167.234C106.048 165.801 105.45 164.204 105.147 162.54C104.461 163.023 103.984 163.796 103.815 164.699C103.103 167.867 101.709 170.75 99.7529 173.102C98.5898 174.656 97.9677 175.019 95.5878 175.539C94.4669 176.723 94.6885 178.318 94.3331 179.703C93.6193 182.677 93.2806 185.737 92.701 188.734C92.1558 191.567 91.407 194.333 90.461 197.005C89.9715 198.367 88.6878 199.26 88.4662 200.668C87.9071 200.815 87.3092 200.742 86.7691 200.462C86.2288 200.181 85.7778 199.71 85.4893 199.123C83.6707 196.47 82.6868 193.247 82.7032 189.998C82.5706 186.264 82.9113 182.559 83.7151 178.995C84.0322 177.673 84.1516 176.305 84.3616 174.944C85.2854 173.034 85.8984 170.938 86.1731 168.75L83.6559 174.687C83.2001 175.676 82.6916 176.631 82.1329 177.547C80.9608 179.264 79.2921 180.461 77.3869 180.953C76.8736 180.766 76.4461 180.611 76.3612 180.092C76.0106 178.363 75.9308 176.596 76.1254 174.873C76.6912 171.254 77.8244 167.791 78.6796 164.226C79.376 161.323 80.459 158.457 80.9843 155.491C81.2123 154.706 81.5169 153.956 81.8929 153.255L83.2204 150.145C82.6199 149.644 82.3796 149.967 82.0322 150.251C80.7134 151.388 79.6382 152.768 78.4194 154.07C76.7272 156.101 74.5413 157.534 72.1013 158.213C71.1302 157.705 71.8324 156.523 71.1601 155.74C69.9893 155.697 68.8388 155.935 67.7847 156.436C65.6383 156.895 63.4087 156.877 61.2182 156.382C60.4456 156.306 60.067 155.655 59.5875 154.941C61.4604 150.721 65.2681 148.513 69.0041 146.023L70.0279 143.597C70.6233 143.634 70.8195 143.398 70.6008 142.856C70.4599 142.914 70.3351 143.009 70.2367 143.134C70.1382 143.258 70.0684 143.409 70.0334 143.574C68.0861 143.84 67.0288 145.535 65.593 146.578C62.7979 148.538 60.6592 151.25 57.7525 153.093C53.4983 155.805 49.4124 158.784 45.0421 161.3C42.8884 162.766 40.4708 163.718 37.9301 164.102C36.9356 164.177 36.3955 164.005 36.1077 162.977C37.5699 159.641 39.669 156.738 42.2653 154.463C44.9566 151.772 47.8238 149.222 50.7591 146.774C51.7263 145.893 52.627 144.925 53.4533 143.879C55.1529 141.931 56.7245 139.936 58.5521 138.035C60.8654 135.703 63.4357 133.709 66.208 132.094C66.574 131.92 66.8841 131.634 67.1044 131.265L67.7747 130.893C68.1173 130.884 68.4406 130.749 68.6959 130.508C68.951 130.267 69.1237 129.934 69.1874 129.559C68.3917 130.066 67.548 129.707 67.2086 130.636C67.1951 130.705 67.1665 130.768 67.1257 130.82C67.0848 130.872 67.033 130.912 66.9742 130.935C64.74 131.35 62.5621 132.019 60.4736 132.933C59.1259 133.477 57.7447 133.926 56.3382 134.277C56.3427 133.483 56.0609 132.816 56.4089 132.044C58.1757 131.434 59.8818 130.646 61.5071 129.69C61.8712 129.824 62.2588 129.803 62.593 129.63C62.9275 129.456 63.1842 129.145 63.3122 128.756C63.0314 128.666 62.7393 128.653 62.4608 128.717C62.1825 128.781 61.9259 128.92 61.7129 129.123L60.1947 128.571C59.9648 127.204 61.0851 126.507 61.7856 125.428C60.8023 125.203 59.7998 125.354 58.9397 125.855C56.0496 127.267 53.3008 128.991 50.7299 131.004C47.9177 133.034 44.9296 134.539 42.0501 136.366C41.8446 136.541 41.5957 136.644 41.3316 136.662C41.0678 136.679 40.8009 136.611 40.5616 136.466C39.6719 134.166 40.7288 132.086 42.1019 130.045C44.7626 126.49 47.9987 123.538 51.6559 121.33C52.0281 120.747 51.2767 120.294 51.8955 119.749C53.3764 118.722 55.0007 117.963 56.7132 117.499C58.5022 117.339 60.2214 116.768 61.7657 115.821C62.0436 115.922 62.343 116.031 62.646 115.834C62.5486 115.464 62.2269 115.45 61.9317 115.419C61.2044 114.769 60.2073 115.048 59.4125 115.067C58.9155 115.117 58.408 115.038 57.9287 114.837C57.4495 114.636 57.0104 114.318 56.6453 113.906C51.406 116.362 46.1782 118.772 41.0402 121.291C37.2804 123.105 33.5734 124.99 29.8505 126.844C27.973 127.645 26.0128 128.213 24.0031 128.54C23.6003 128.63 23.1743 128.565 22.7919 128.356C21.9543 127.486 22.638 126.477 23.184 125.752C24.1774 124.159 25.4687 122.837 26.9751 121.87C27.5171 121.617 27.9848 121.21 28.3341 120.686C28.6835 120.162 28.9031 119.539 28.9723 118.875C29.3063 117 29.8128 115.181 30.4842 113.445C31.0506 111.084 32.2798 108.965 32.7607 106.573C33.8133 102.579 35.2469 98.7471 37.0376 95.1418C35.7629 94.5023 34.6152 93.5583 33.6782 92.3791C34.3129 90.9931 34.3129 90.9931 36.6036 89.876C36.7249 89.7689 36.8327 89.6441 36.925 89.5052C37.6583 87.2903 38.9211 85.3742 40.5812 83.957C40.7989 83.7283 40.9794 83.4604 41.1814 83.2002C41.4001 83.2028 41.6072 83.1166 41.7652 82.957C41.9231 82.7975 42.0209 82.5755 42.0405 82.3321L42.4435 82.2993L42.3448 82.0323L42.0247 82.3005C41.908 82.2359 41.7758 82.2237 41.6568 82.2668C41.5378 82.3099 41.4413 82.4048 41.3882 82.5308C39.0913 82.9094 36.934 83.8802 35.081 85.3691C31.6876 87.7033 28.4641 90.3218 25.4361 93.2038C24.8048 94.0478 23.941 94.6313 22.9669 94.8716C22.3493 94.4415 22.2914 93.9073 22.5311 93.1987C23.3372 90.8455 24.6315 88.7679 26.3117 87.1311C28.5608 84.6878 31.2287 82.7759 34.1736 81.4967C35.6738 80.8718 37.2479 80.462 38.8603 80.2764C40.8732 79.8296 42.9517 79.7209 45.0286 79.9547C45.2322 79.9988 45.4391 79.9943 45.6359 79.9422C45.8328 79.8901 46.0148 79.791 46.1708 79.6517C47.726 78.7077 49.2319 77.6707 50.6826 76.5453C49.8331 75.3378 48.9125 74.2326 48.2554 73.0949C48.0277 72.7019 47.6858 72.4063 47.2924 72.2631C46.8993 72.12 46.4818 72.139 46.1171 72.3168C44.008 72.8414 41.8491 73.147 39.6674 73.229C38.4522 73.3702 37.2051 73.0692 36.1073 72.3696C37.531 68.8581 40.899 67.9022 43.9369 66.2872L43.0769 63.7664L38.651 62.1556C38.3804 61.4412 38.7076 61.0469 39.2598 60.6834C41.4792 59.3003 44.1415 58.9716 46.6867 59.7673C48.0978 60.281 49.4877 60.787 50.7495 61.246C51.286 60.851 51.2796 60.4894 50.9984 60.2074C49.4909 58.051 48.2258 55.7014 47.2355 53.2163C45.2486 49.5746 43.4487 45.8167 41.8446 41.9624C41.4097 41.028 41.1984 39.9946 41.2319 38.9691C41.2653 37.9434 41.5429 36.963 42.0354 36.1286C42.4628 36.284 42.8623 36.5577 43.3638 36.4065C43.2415 35.8488 43.0598 35.3464 42.4117 35.2386C40.9874 33.6166 39.4975 32.0733 38.1601 30.3801C36.8693 28.9353 35.9018 27.171 35.3457 25.2488C35.4714 24.8875 35.694 24.5838 35.9842 24.3777C36.274 24.1719 36.6181 24.0733 36.971 24.0951C39.0961 23.9089 41.2595 24.4722 43.1637 25.7075C46.0219 27.7886 48.6295 30.2929 50.911 33.1473C51.3664 33.6725 51.6694 34.3473 52.3423 34.6436C52.3301 34.7066 52.3294 34.7722 52.3397 34.8372C52.3503 34.9022 52.3722 34.9649 52.4041 35.0218C52.4356 35.0785 52.4768 35.1286 52.5247 35.1688C52.5726 35.2087 52.6266 35.2383 52.6839 35.2557C52.5253 35.9167 52.423 36.3413 53.3748 36.2515C53.3825 35.6381 53.3944 35.1035 52.921 34.7517C52.8093 34.6835 52.7038 34.6024 52.607 34.5088C52.7633 34.1527 52.8306 33.7504 52.8016 33.3435C52.7727 32.9363 52.6488 32.5384 52.4427 32.1904C51.37 29.7342 50.5909 27.1453 50.1274 24.4943C49.6713 20.2596 49.744 16.0091 50.3436 11.8675C50.8457 9.56154 52.0708 7.57924 53.8016 6.27283C54.1953 6.24951 54.5929 6.37421 54.9319 6.62754C55.2706 6.88104 55.5318 7.24862 55.6743 7.67316C56.8891 10.4247 57.5704 13.4055 57.6704 16.4081L57.8895 18.2077C59.8702 19.3229 61.611 20.9424 62.9645 22.9294C62.7946 23.6376 62.7856 24.3531 63.802 24.6717C63.9719 23.9635 64.0738 23.5386 63.5801 23.0766C63.7557 22.3447 63.9256 21.6365 64.0954 20.9284C64.758 18.1663 65.603 15.4195 66.4052 12.657C66.8921 11.1334 67.8754 9.9004 69.1656 9.19544L70.795 8.9928C71.9906 8.27301 72.2476 6.62108 73.6143 5.9636C73.9083 5.95459 74.2039 6.03207 74.4721 6.1882C74.7404 6.3443 74.972 6.57373 75.1444 6.85408C76.4406 9.09933 77.2531 11.6316 77.5117 14.2353C78.1775 21.1512 79.054 27.9642 79.1229 34.945C79.2493 38.3487 79.1425 41.7421 78.8032 45.0959C80.0492 43.6655 81.6314 42.6559 83.388 42.1702C83.9955 42.1609 84.6041 42.3378 85.148 42.6826C85.1085 42.8476 85.2937 43.0435 85.26 43.185C83.9071 47.0232 82.1139 50.6228 79.9231 53.8969C78.5333 55.6509 77.4525 57.6924 76.734 59.923C78.0437 58.8063 79.6607 58.2083 81.3516 58.2157C81.514 58.1054 81.6501 57.9539 81.7501 57.7725C81.8498 57.5914 81.9109 57.3846 81.9286 57.1681C82.7614 53.6174 84.0473 50.2481 85.7473 47.1612C86.7212 45.212 87.8679 43.3857 89.1715 41.7083C90.7576 39.8945 92.8361 38.7134 95.1201 38.3294C95.2877 38.4133 95.4276 38.559 95.5154 38.7408C95.6033 38.9228 95.6338 39.1296 95.602 39.3262C94.9641 42.3053 93.8744 45.111 92.3787 47.6244C91.067 49.7068 90.0706 52.0294 89.4256 54.5064C88.9757 55.6007 88.6926 56.7805 88.5874 58.0002C89.4182 57.142 90.1095 56.1279 90.6331 54.9973C91.6466 52.517 92.8525 50.1069 93.7377 47.5797C94.4389 45.6276 94.9628 43.6366 95.7281 41.7077C96.9291 39.111 98.3566 36.6655 99.9909 34.404C101.388 32.5159 103.329 31.2373 105.513 30.7671C106.687 31.7848 106.433 33.2322 106.043 34.3737C105.578 36.3187 104.976 38.2107 104.244 40.0328C103.552 40.9437 102.973 41.9579 102.52 43.0502C101.954 45.4111 100.967 47.8756 100.281 50.3465C99.4891 53.2401 98.5322 56.0639 97.4161 58.8008C95.1793 63.8069 92.491 68.5204 89.3906 72.8717C88.4543 74.3715 87.4488 75.8132 86.3777 77.1911L85.9113 86.2102C86.993 86.1452 88.0863 86.445 89.0529 87.0712C89.2693 85.1996 87.938 83.8679 88.94 82.3073C89.9268 81.9737 90.5437 82.8911 91.4199 82.8248C91.5608 82.7222 91.7444 82.6351 91.794 82.525C92.3089 80.8901 93.0217 79.3539 93.913 77.9573C96.5669 74.2898 99.5431 70.9382 102.801 67.9479L103.978 67.0154C104.818 66.1473 105.866 65.567 107.011 65.337C108.156 65.1071 109.353 65.236 110.475 65.7101C111.704 65.3361 112.833 64.412 114.261 64.8546C115.359 62.8931 114.32 60.5383 116.104 58.7236C116.732 59.2524 117.267 59.9134 117.674 60.666C118.08 61.4184 118.352 62.2473 118.471 63.1016C118.993 65.3451 119.334 67.6256 119.487 69.9141C119.914 74.433 120.147 78.984 120.359 83.5273C120.448 86.334 120.397 89.1349 120.207 91.9166C120.136 93.3653 120.466 94.8304 121.153 96.1112C122.132 95.2119 122.958 94.1244 123.599 92.8944C124.651 91.2241 125.905 89.6782 127.074 88.1015C129.053 85.3649 130.341 82.0603 130.818 78.5041C131.213 76.0814 131.48 73.6118 131.799 71.3149C132.055 69.9225 132.625 68.6468 133.456 67.606C134.739 69.4876 135.552 71.7031 135.803 74.0045C136.107 76.2854 136.134 78.5839 135.885 80.8361C136.571 81.3681 137.066 80.8554 137.563 80.6257C139.312 79.8364 141.136 79.2452 143.008 78.8598C143.642 78.7093 144.314 78.8007 144.922 79.1201C145.191 79.7981 145.327 80.5257 145.322 81.251C145.317 81.9763 145.17 82.682 144.891 83.3186C143.975 86.3752 142.405 89.0957 140.314 91.2524C136.985 94.8828 133.874 98.7571 130.998 102.851L127.58 107.409C127.487 107.518 127.439 107.666 127.446 107.822C127.451 107.978 127.511 108.128 127.613 108.242C129.009 107.364 130.391 106.352 131.91 105.545C134.469 103.821 137.199 102.414 140.054 101.348C143.055 100.503 146.191 100.239 149.332 100.567C150.23 100.723 151.125 100.477 151.821 99.8813C154.307 98.0295 157.005 96.5458 159.856 95.4644C160.49 95.235 161.144 95.0694 161.811 94.9697C162.551 95.0852 162.439 95.8401 162.922 95.8619C162.756 97.9588 162.27 99.9868 161.484 101.858C160.924 103.377 160.084 104.731 159.018 105.837C156.303 109.446 153.305 112.769 150.056 115.769C150.056 115.769 150.016 115.934 149.965 116.146C151.542 117.131 153.554 117.273 155.137 118.234C156.708 118.928 158.152 119.978 159.373 121.316C159.459 122.99 158.165 123.443 157.017 123.77C156.59 123.614 156.307 123.922 155.679 124.309C156.259 124.315 156.556 124.628 156.862 124.124C158.274 124.638 159.685 125.151 161.139 125.681C163.89 126.863 166.303 128.942 168.056 131.637C167.941 132.409 167.612 133.106 167.113 133.63C165.928 134.03 164.635 133.965 163.437 133.447C161.692 132.786 159.853 132.62 158.09 132.964C155.913 133.318 153.682 133.311 151.469 132.941C151.362 132.903 151.22 133.107 150.971 133.273C152.837 135.185 154.709 137.072 156.576 138.984C157.835 140.311 158.879 141.874 159.654 143.595C159.91 144.176 159.791 144.672 159.269 145.2C157.33 144.657 155.525 143.548 154.041 141.988C152.824 140.955 151.64 139.883 150.342 138.897C150.1 138.659 149.813 138.489 149.506 138.4C149.199 138.31 148.882 138.305 148.582 138.384C147.779 138.636 146.922 138.662 146.084 138.46C145.246 138.257 144.452 137.833 143.769 137.223C142.684 136.387 141.528 135.682 140.321 135.121C139.756 135.524 139.107 135.766 138.425 135.83C137.744 135.894 137.049 135.777 136.397 135.49C135.825 135.154 135.203 134.956 134.573 134.908C133.943 134.86 133.319 134.964 132.744 135.212C135.019 136.194 137.563 136.735 138.602 139.09C138.616 140.096 137.884 140.728 137.711 141.64C140.104 143.101 142.474 144.657 144.948 146.071C145.315 146.236 145.635 146.519 145.868 146.883C146.1 147.247 146.233 147.675 146.249 148.11C145.702 148.938 145.038 148.799 144.321 148.589C142.386 147.849 140.512 146.892 138.728 145.732C137.972 145.32 137.199 144.952 136.412 144.632C136.411 143.862 135.858 143.841 135.272 143.859C135.277 144.152 135.378 144.44 135.553 144.669C135.729 144.898 135.969 145.053 136.229 145.105ZM44.6253 106.348C46.8379 104.587 49.5189 105.332 52.0026 104.67C52.2381 103.724 52.6373 102.849 53.1786 102.095C54.0149 101.321 53.5861 100.395 54.2304 99.5513C55.517 98.9507 56.581 97.9025 57.2745 96.5525C58.0693 95.2759 59.8651 94.6718 59.9361 92.8243L55.8734 91.3453C52.9689 92.9716 49.8585 94.1363 46.6269 94.8076C44.8807 96.8523 43.5117 99.2708 42.5912 101.938C41.8488 104.416 40.9594 106.827 39.9292 109.156C39.192 110.797 38.6883 112.57 38.4358 114.414C40.2656 114.926 41.2576 113.31 42.6301 112.629C42.11 111.696 41.3126 111.046 41.5632 109.905C42.2425 108.818 43.6159 108.907 44.5564 107.991C44.4175 107.504 44.1335 107.042 44.6253 106.348ZM69.5023 12.3468C67.9983 13.6733 68.3737 15.0163 67.8494 16.1346C66.6458 19.0933 65.8394 22.2581 65.456 25.5304C65.0935 27.3759 65.2569 29.336 65.923 31.1418C66.5 32.6883 66.9584 34.2811 67.2919 35.9012C68.0829 39.6797 68.7439 43.5137 69.4107 47.3243C69.4811 47.7093 69.5885 48.1333 70.3219 47.8869C70.538 42.4696 70.2354 37.0067 69.4184 31.5927C68.7667 27.0916 68.5461 22.5537 68.7596 18.0572C68.8401 16.3667 69.2218 14.5806 69.5448 12.3623L69.5023 12.3468ZM79.44 65.9903C78.7755 65.4544 78.0119 65.1058 77.2187 64.9765C75.6967 66.4757 74.9035 68.523 73.3882 69.8964C73.8147 71.4638 74.4918 72.946 75.385 74.268C76.045 75.5864 76.1801 77.2526 77.5925 78.5366C78.6298 74.4738 79.2496 70.2654 79.44 65.9903ZM129.884 115.152C129.921 115.576 130.161 115.74 130.366 115.661C132.963 114.648 135.453 113.355 137.803 111.797C138 111.704 138.155 111.53 138.238 111.309C138.321 111.088 138.326 110.835 138.253 110.6C135.239 111.592 132.414 113.128 129.884 115.152ZM85.6865 89.1829C85.3761 91.2517 85.1294 92.9587 86.3285 94.5499C86.892 93.9861 87.2764 93.2296 87.4292 92.3839C86.9817 91.2456 86.8402 90.0906 85.709 89.0883L85.6865 89.1829ZM58.8506 73.8968C58.2529 72.3188 57.7119 71.7626 55.582 70.7565C56.6264 71.8299 56.7148 73.7868 58.8506 73.8968ZM81.7984 83.5839C80.1348 84.8007 79.7475 85.738 80.5037 86.6547C80.8862 86.1269 81.587 85.9197 81.8222 85.1327L81.7984 83.5839ZM77.4037 79.0326C77.4037 79.0326 77.4037 79.0326 77.5104 79.0715C77.6172 79.1104 77.6886 79.0081 77.6729 78.9766C77.6571 78.9451 77.724 78.764 77.459 78.8988L77.4037 79.0326ZM70.0359 129.124L69.8465 129.235C69.8465 129.235 69.8185 129.352 69.914 129.439L70.1414 129.265L70.0359 129.124Z" fill="#E9C0E9"/>
</g>
</g>
<defs>
<clipPath id="clip0_7_3228">
<rect width="192.99" height="227.72" fill="white" transform="translate(0.810059 -5.41113)"/>
</clipPath>
<clipPath id="clip1_7_3228">
<rect width="192.99" height="227.72" fill="white" transform="translate(0.810059 -5.41113)"/>
</clipPath>
</defs>
</svg>
