<svg width="62" height="63" viewBox="0 0 62 63" fill="none" xmlns="http://www.w3.org/2000/svg">
<rect x="0.0600586" y="0.682617" width="61.93" height="61.93" rx="30.965" fill="#1E2330"/>
<path fill-rule="evenodd" clip-rule="evenodd" d="M31.0247 20.1846C27.9113 20.1846 27.5216 20.1973 26.2989 20.2534C25.0788 20.3094 24.2452 20.503 23.516 20.7864C22.7512 21.0742 22.0584 21.5253 21.4858 22.1084C20.9029 22.681 20.4517 23.3738 20.1638 24.1386C19.8804 24.8677 19.6862 25.7013 19.6308 26.9221C19.5754 28.1441 19.562 28.5332 19.562 31.6473C19.562 34.7613 19.5748 35.1504 19.6308 36.373C19.6868 37.5932 19.8804 38.4268 20.1638 39.1559C20.4516 39.9207 20.9028 40.6136 21.4858 41.1861C22.1226 41.8229 22.7626 42.2152 23.516 42.5081C24.2452 42.7915 25.0788 42.9857 26.2989 43.0411C27.5216 43.0965 27.9113 43.1099 31.0247 43.1099C34.1381 43.1099 34.5278 43.0972 35.7505 43.0411C36.9706 42.9851 37.8042 42.7915 38.5334 42.5081C39.2982 42.2203 39.991 41.7691 40.5635 41.1861C41.2003 40.5493 41.5926 39.9093 41.8856 39.1559C42.1689 38.4268 42.3632 37.5932 42.4186 36.373C42.474 35.1504 42.4873 34.7606 42.4873 31.6473C42.4873 28.5338 42.4746 28.1441 42.4186 26.9214C42.3625 25.7013 42.1689 24.8677 41.8856 24.1386C41.5977 23.3738 41.1466 22.6809 40.5635 22.1084C39.9909 21.5254 39.2981 21.0743 38.5334 20.7864C37.8042 20.503 36.9706 20.3088 35.7499 20.2534C34.5278 20.1979 34.1387 20.1846 31.0247 20.1846ZM31.0242 35.4731C30.5219 35.4731 30.0245 35.3741 29.5605 35.1819C29.0965 34.9897 28.6748 34.708 28.3197 34.3528C27.9645 33.9977 27.6828 33.5761 27.4906 33.112C27.2984 32.648 27.1995 32.1506 27.1995 31.6484C27.1995 31.1461 27.2984 30.6488 27.4906 30.1847C27.6828 29.7207 27.9645 29.2991 28.3197 28.9439C28.6748 28.5887 29.0965 28.307 29.5605 28.1148C30.0245 27.9226 30.5219 27.8236 31.0242 27.8236C32.0385 27.8236 33.0114 28.2266 33.7286 28.9439C34.4459 29.6612 34.8489 30.634 34.8489 31.6484C34.8489 32.6627 34.4459 33.6356 33.7286 34.3528C33.0114 35.0701 32.0385 35.4731 31.0242 35.4731ZM31.0242 25.7565C29.4616 25.7565 27.963 26.3773 26.858 27.4822C25.7531 28.5871 25.1324 30.0858 25.1324 31.6484C25.1324 33.211 25.7531 34.7096 26.858 35.8145C27.963 36.9194 29.4616 37.5402 31.0242 37.5402C32.5868 37.5402 34.0854 36.9194 35.1903 35.8145C36.2952 34.7096 36.916 33.211 36.916 31.6484C36.916 30.0858 36.2952 28.5871 35.1903 27.4822C34.0854 26.3773 32.5868 25.7565 31.0242 25.7565ZM38.6303 25.6496C38.6303 26.0189 38.4835 26.3732 38.2224 26.6343C37.9612 26.8955 37.6069 27.0423 37.2376 27.0423C36.8682 27.0423 36.5139 26.8955 36.2528 26.6343C35.9916 26.3732 35.8448 26.0189 35.8448 25.6496C35.8448 25.2802 35.9916 24.9259 36.2528 24.6648C36.5139 24.4036 36.8682 24.2568 37.2376 24.2568C37.6069 24.2568 37.9612 24.4036 38.2224 24.6648C38.4835 24.9259 38.6303 25.2802 38.6303 25.6496Z" fill="white"/>
</svg>
