<svg width="344" height="162" viewBox="0 0 344 162" fill="none" xmlns="http://www.w3.org/2000/svg">
<rect x="0.5" y="0.676758" width="343" height="160.646" rx="32.5633" fill="#E1D8F5"/>
<path d="M63.2247 42.6105C63.0279 40.0354 65.6453 37.7356 69.0708 37.4738C72.4963 37.2121 75.4327 39.0874 75.6295 41.6626C75.8263 44.2377 73.2089 46.5374 69.7834 46.7992C66.3579 47.061 63.4215 45.1856 63.2247 42.6105Z" fill="#4C00FF"/>
<path d="M54.7536 52.835L56.7763 56.4672L58.1248 58.8597L63.7145 68.843C73.7195 84.3725 77.7651 85.5252 92.7508 83.2632C99.9283 82.1975 105.649 81.4797 110.151 80.6532C121.809 78.5217 124.245 79.0437 125.376 80.2617C127.921 83.0022 119.808 85.547 113.044 88.2657C113.283 89.4185 113.5 90.6582 113.631 91.9632C117.676 90.6147 132.227 85.46 133.054 81.6755C134.554 74.6285 122.005 68.9517 108.063 65.3847H107.998L101.712 63.884L59.7996 54.0095L54.7753 52.835H54.7536Z" fill="#4C00FF"/>
<path d="M69.7393 42.6348C61.9963 43.5265 52.2305 47.3763 44.6397 53.9448C38.8977 58.9255 39.4632 62.6883 42.0515 75.3685C42.0515 75.3685 42.8345 75.064 44.1612 74.5638C48.1197 73.0848 56.885 69.9963 63.6057 68.6695L69.7393 42.6348Z" fill="#4C00FF"/>
<path d="M63.6058 68.6688C78.0478 65.4716 95.1215 64.2101 108.041 65.4063C105.301 53.0523 103.822 46.8101 87.596 43.7868C80.723 42.5036 74.981 42.0468 69.7828 42.6776C67.0858 43.0473 65.3676 46.0923 64.7151 52.4868C64.1713 57.9896 63.6058 68.6471 63.6058 68.6471V68.6688Z" fill="white"/>
<path d="M40.436 112.8V87.3523H50.963V93.1813C52.529 88.4833 55.487 86.4823 60.1415 86.4823C64.796 86.4823 67.8845 88.8748 69.0155 93.2248C70.538 88.5268 73.6265 86.4823 78.4115 86.4823C84.719 86.4823 88.025 90.3103 88.025 97.7923V112.8H77.411V100.228C77.411 96.8788 76.2365 94.8778 73.6265 94.8778C70.886 94.8778 69.5375 97.0093 69.5375 100.228V112.8H58.9235V99.8368C58.9235 96.8353 57.749 94.8778 55.1825 94.8778C52.4855 94.8778 51.05 97.1833 51.05 100.707V112.8H40.436ZM92.687 112.8V87.3523H103.127V95.4433C104.301 89.4403 106.911 86.7868 110.913 86.7868C112.697 86.7868 114.045 87.3088 114.872 87.8308V97.2268C114.002 96.6613 112.523 96.1393 110.565 96.1393C106.128 96.1393 103.344 98.6623 103.344 104.796V112.8H92.687ZM118.759 113.67C115.235 113.67 112.625 111.408 112.625 108.58C112.625 105.753 115.235 103.534 118.759 103.534C122.282 103.534 124.849 105.753 124.849 108.58C124.849 111.451 122.282 113.67 118.759 113.67ZM139.925 112.8V87.3523H150.452V93.1813C152.018 88.4833 154.976 86.4823 159.631 86.4823C164.285 86.4823 167.374 88.8748 168.505 93.2248C170.027 88.5268 173.116 86.4823 177.901 86.4823C184.208 86.4823 187.514 90.3103 187.514 97.7923V112.8H176.9V100.228C176.9 96.8788 175.726 94.8778 173.116 94.8778C170.375 94.8778 169.027 97.0093 169.027 100.228V112.8H158.413V99.8368C158.413 96.8353 157.238 94.8778 154.672 94.8778C151.975 94.8778 150.539 97.1833 150.539 100.707V112.8H139.925ZM200.311 113.67C194.395 113.67 191.002 110.103 191.002 105.405C191.002 100.533 194.699 97.0963 200.92 97.0963C204.53 97.0963 207.053 98.0968 209.011 100.446C208.619 96.6178 205.226 94.7038 200.702 94.7038C197.527 94.7038 194.569 95.8348 192.22 97.8358V89.8753C194.96 88.0048 198.832 86.4823 204.182 86.4823C214.013 86.4823 219.407 91.3543 219.407 100.272V112.8H209.098V109.624C207.314 112.234 204.443 113.67 200.311 113.67ZM204.617 107.667C207.227 107.667 209.098 106.536 209.098 104.752C209.098 103.056 207.314 101.925 204.661 101.925C202.225 101.925 200.702 103.099 200.702 104.796C200.702 106.536 202.225 107.667 204.617 107.667ZM223.824 112.8V87.3523H234.264V95.4433C235.439 89.4403 238.049 86.7868 242.051 86.7868C243.834 86.7868 245.183 87.3088 246.009 87.8308V97.2268C245.139 96.6613 243.66 96.1393 241.703 96.1393C237.266 96.1393 234.482 98.6623 234.482 104.796V112.8H223.824ZM272.591 87.3523V94.9648H264.892V112.8H254.234V94.9648H247.144V87.3523H254.234V82.9153L264.892 81.3493V87.3523H272.591ZM274.521 112.8V105.927L288.702 94.7038H274.826V87.3523H302.361V94.3558L288.18 105.448H303.188V112.8H274.521Z" fill="#4C00FF"/>
</svg>
