<svg width="152" height="66" viewBox="0 0 152 66" fill="none" xmlns="http://www.w3.org/2000/svg">
<rect x="0.560059" y="0.762695" width="151.24" height="64.39" rx="32.195" fill="#1E2330"/>
<path d="M19.8156 19.8174C19.5215 20.1115 19.3254 20.6017 19.3254 21.1899V42.8555C19.3254 43.4437 19.5215 43.9339 19.8156 44.228L19.9136 44.326L32.0687 32.1697V31.9737L19.8156 19.8174Z" fill="url(#paint0_linear_7_3305)"/>
<path d="M36.0879 36.1882L32.0688 32.1692V31.9731L36.0879 27.9541L36.1859 28.0521L40.9891 30.7968C42.3614 31.581 42.3614 32.8553 40.9891 33.6395L36.0879 36.1882Z" fill="url(#paint1_linear_7_3305)"/>
<path d="M36.0876 36.1887L31.9706 32.0713L19.8154 44.2276C20.3056 44.7177 20.9917 44.7177 21.874 44.3256L36.0876 36.1887Z" fill="url(#paint2_linear_7_3305)"/>
<path d="M36.0876 27.8556L21.7759 19.7187C20.9917 19.2286 20.2075 19.3266 19.8154 19.8168L32.0686 32.0711L36.0876 27.8556Z" fill="url(#paint3_linear_7_3305)"/>
<path opacity="0.2" d="M36.0876 36.0908L21.776 44.1288C20.9918 44.619 20.3057 44.5209 19.8156 44.1288L19.7175 44.2269L19.8156 44.3249C20.3057 44.717 20.9918 44.815 21.776 44.3249L36.0876 36.0908Z" fill="white"/>
<path opacity="0.12" d="M19.8156 44.1299C19.5215 43.7378 19.3254 43.3456 19.3254 42.7574V42.8555C19.3254 43.4437 19.5215 43.9338 19.8156 44.2279V44.1299ZM40.891 33.2481L35.9897 35.993L36.0878 36.0911L40.891 33.3461C41.5772 32.954 41.8713 32.4638 41.8713 31.9736C41.8713 32.4638 41.5772 32.954 40.891 33.2481Z" fill="white"/>
<path opacity="0.25" d="M21.7761 19.9155L40.891 30.6993C41.4792 31.0914 41.8713 31.4836 41.8713 31.9737C41.8713 31.4836 41.5772 30.9934 40.891 30.6012L21.7761 19.7194C20.4037 18.9351 19.3254 19.6214 19.3254 21.1899V21.288C19.3254 19.7194 20.4037 19.1312 21.7761 19.9155Z" fill="white"/>
<path d="M132.937 33.8364L127.937 45.4045H126.075L127.937 41.287L124.703 33.8364H126.663L128.82 39.1303H128.918L130.976 33.8364H132.937ZM113.332 33.2482C113.332 35.601 111.371 37.0715 109.313 37.0715H106.764V41.6792H104.901V29.4249H109.313C111.371 29.4249 113.332 30.8954 113.332 33.2482ZM111.567 33.2482C111.567 32.2679 110.783 31.1895 109.411 31.1895H106.764V35.405H109.411C110.783 35.405 111.567 34.2285 111.567 33.2482ZM124.408 36.9735V41.6792H122.644V40.6988H122.546C122.154 41.3851 121.468 41.8752 120.193 41.8752C118.625 41.8752 117.155 40.7969 117.155 39.1303C117.155 37.3657 118.919 36.3853 120.683 36.3853C121.566 36.3853 122.252 36.6794 122.546 36.8755V36.7774C122.546 35.7971 121.566 35.2089 120.585 35.2089C119.899 35.2089 119.213 35.405 118.919 36.0912L117.253 35.405C117.841 34.1305 119.213 33.5423 120.487 33.5423C122.84 33.6403 124.408 34.8168 124.408 36.9735ZM122.644 38.346C122.154 38.1499 121.762 37.9539 120.978 37.9539C120.095 37.9539 119.017 38.346 119.017 39.2283C119.017 40.0126 119.899 40.3067 120.487 40.3067C121.566 40.3067 122.546 39.5224 122.644 38.346ZM71.3767 37.7578C71.3767 40.1106 69.5142 41.9733 67.1616 41.9733C64.809 41.9733 62.9465 40.2087 62.9465 37.7578C62.9465 35.3069 64.809 33.5423 67.1616 33.5423C69.5142 33.5423 71.3767 35.405 71.3767 37.7578ZM69.6123 37.7578C69.6123 36.2873 68.534 35.2089 67.2597 35.2089C65.9853 35.2089 64.9071 36.1892 64.9071 37.7578C64.9071 39.2283 65.9853 40.3067 67.2597 40.3067C68.534 40.3067 69.6123 39.2283 69.6123 37.7578ZM56.3789 34.9148V36.6794H60.5939C60.4959 37.6598 60.1038 38.444 59.6137 38.9342C59.0255 39.5224 58.0453 40.2087 56.3789 40.2087C53.7322 40.2087 51.7717 38.1499 51.7717 35.503C51.7508 34.5857 52.0032 33.6829 52.4966 32.9094C52.99 32.1359 53.7022 31.5265 54.5428 31.1588C55.3833 30.791 56.3141 30.6815 57.2171 30.844C58.12 31.0066 58.9542 31.434 59.6137 32.0718L60.888 30.7973C59.7058 29.6535 58.1217 29.0198 56.4769 29.0327C52.948 29.0327 49.9092 31.9738 49.9092 35.503C49.9092 39.0322 52.948 41.9733 56.4769 41.9733C58.4374 41.9733 59.8097 41.3851 60.986 40.1106C62.1623 38.9342 62.5544 37.2676 62.5544 35.9932C62.5544 35.601 62.5544 35.2089 62.4564 34.9148H56.3789ZM80.4931 37.7578C80.4931 40.1106 78.6306 41.9733 76.278 41.9733C75.7208 41.9867 75.1667 41.8869 74.6492 41.6798C74.1317 41.4727 73.6617 41.1626 73.2676 40.7685C72.8735 40.3743 72.5635 39.9043 72.3564 39.3867C72.1493 38.8692 72.0495 38.315 72.0629 37.7578C72.0629 35.3069 73.9254 33.5423 76.278 33.5423C78.6306 33.6403 80.4931 35.405 80.4931 37.7578ZM78.7286 37.7578C78.7286 36.2873 77.6504 35.2089 76.376 35.2089C75.1017 35.2089 74.0234 36.1892 74.0234 37.7578C74.0234 39.2283 75.1017 40.3067 76.376 40.3067C77.6504 40.3067 78.7286 39.2283 78.7286 37.7578ZM100.98 36.7774L95.3929 39.1303C95.785 40.0126 96.4712 40.4047 97.4515 40.4047C98.4317 40.4047 99.0199 39.9145 99.51 39.2283L100.98 40.2087C100.497 40.9662 99.777 41.5437 98.9327 41.852C98.0884 42.1603 97.1661 42.1825 96.308 41.915C95.4499 41.6475 94.7035 41.1052 94.1839 40.3717C93.6642 39.6382 93.4002 38.7542 93.4324 37.8558C93.4324 35.405 95.1969 33.6403 97.3534 33.6403C99.51 33.6403 100.588 35.405 100.882 36.2873L100.98 36.7774ZM98.8238 36.0912C98.6278 35.601 98.0396 35.2089 97.2554 35.2089C96.2752 35.2089 95.0008 35.9932 95.0989 37.6598L98.8238 36.0912ZM114.41 41.6792H116.272V29.4249H114.41V41.6792ZM90.5897 41.6792H92.4522V29.4249H90.5897V41.6792ZM87.5509 33.8364H89.3154V41.287C89.3154 44.3261 87.4529 45.6005 85.3944 45.6005C83.3358 45.6005 82.1595 44.2281 81.6694 43.1497L83.2378 42.4634C83.5319 43.1497 84.2181 43.934 85.2963 43.934C86.6687 43.934 87.5509 43.0517 87.5509 41.4831V40.8949H87.4529C87.0608 41.3851 86.2766 41.8752 85.2963 41.8752C83.2378 41.8752 81.2773 40.0126 81.2773 37.7578C81.2773 35.405 83.1398 33.5423 85.2963 33.5423C86.2766 33.5423 87.0608 34.0325 87.4529 34.5227H87.5509V33.8364ZM87.6489 37.7578C87.6489 36.2873 86.6687 35.2089 85.3944 35.2089C84.12 35.2089 83.0417 36.2873 83.0417 37.7578C83.0417 39.2283 84.12 40.3067 85.3944 40.3067C86.6687 40.3067 87.6489 39.2283 87.6489 37.7578ZM77.4543 24.3271C76.8661 23.7389 76.5721 23.0526 76.5721 22.1703C76.5721 21.288 76.8661 20.6018 77.4543 20.0135C78.0425 19.3273 78.7286 19.0332 79.6109 19.0332C80.4931 19.0332 81.1793 19.3273 81.7674 19.9155C82.3556 20.5037 82.6496 21.19 82.6496 22.0723C82.6496 22.9546 82.3556 23.6408 81.7674 24.229C81.1793 24.8172 80.4931 25.1113 79.6109 25.1113C78.7286 25.2094 78.0425 24.9153 77.4543 24.3271ZM77.3563 22.1703C77.3563 22.8565 77.5523 23.4448 78.0425 23.8369C78.4346 24.3271 79.0227 24.5231 79.6109 24.5231C80.199 24.5231 80.7872 24.3271 81.1793 23.8369C81.5714 23.4448 81.8654 22.8565 81.8654 22.1703C81.8654 21.4841 81.6694 20.8959 81.1793 20.5037C80.7872 20.0135 80.199 19.8175 79.6109 19.8175C79.0227 19.8175 78.4346 20.0135 78.0425 20.5037C77.5523 20.8959 77.3563 21.4841 77.3563 22.1703ZM53.144 25.2094C54.0262 25.2094 54.7124 24.9153 55.3006 24.3271C55.7907 23.8369 55.9868 23.1507 55.9868 22.3664V21.8762H53.144V22.5624H55.3006C55.3006 23.0526 55.1045 23.4448 54.8104 23.7389C54.4183 24.131 53.8302 24.4251 53.144 24.4251C52.5559 24.4251 51.9677 24.229 51.5756 23.7389C51.0855 23.3467 50.8894 22.7585 50.8894 22.0723C50.8894 21.386 51.0855 20.7978 51.5756 20.4057C52.0657 20.0135 52.5559 19.7194 53.144 19.7194C53.8302 19.7194 54.3203 19.9155 54.7124 20.4057L55.3006 20.0135C55.1045 19.7194 54.8104 19.5234 54.4183 19.3273C54.0262 19.1312 53.6341 19.0332 53.144 19.0332C52.2618 19.0332 51.5756 19.3273 50.9875 19.9155C50.3993 20.5037 50.1052 21.19 50.1052 22.0723C50.1052 22.9546 50.3993 23.6408 50.9875 24.229C51.5756 24.9153 52.3598 25.2094 53.144 25.2094ZM60.5939 24.3271H57.9473V22.4644H60.3979V21.7782H57.9473V19.9155H60.5939V19.2293H57.1631V25.1113H60.5939V24.3271ZM63.8288 25.1113V19.9155H65.3972V19.2293H61.3781V19.9155H63.0446V25.1113H63.8288ZM69.1221 19.2293H68.3379V25.1113H69.1221V19.2293ZM72.455 25.1113V19.9155H74.1214V19.2293H70.1024V19.9155H71.7688V25.1113H72.455ZM84.4141 21.386V20.2096L87.4529 25.0133H88.2371V19.1312H87.4529V23.7389L84.6101 19.1312H83.7279V25.0133H84.5121V21.386H84.4141Z" fill="white"/>
<defs>
<linearGradient id="paint0_linear_7_3305" x1="30.9218" y1="20.9448" x2="14.4618" y2="37.3934" gradientUnits="userSpaceOnUse">
<stop stop-color="#00A0FF"/>
<stop offset="0.01" stop-color="#00A1FF"/>
<stop offset="0.26" stop-color="#00BEFF"/>
<stop offset="0.51" stop-color="#00D2FF"/>
<stop offset="0.76" stop-color="#00DFFF"/>
<stop offset="1" stop-color="#00E3FF"/>
</linearGradient>
<linearGradient id="paint1_linear_7_3305" x1="42.7143" y1="32.0123" x2="19.0022" y2="32.0123" gradientUnits="userSpaceOnUse">
<stop stop-color="#FFE000"/>
<stop offset="0.41" stop-color="#FFBD00"/>
<stop offset="0.78" stop-color="#FFA500"/>
<stop offset="1" stop-color="#FF9C00"/>
</linearGradient>
<linearGradient id="paint2_linear_7_3305" x1="33.8821" y1="34.2673" x2="11.5792" y2="56.568" gradientUnits="userSpaceOnUse">
<stop stop-color="#FF3A44"/>
<stop offset="1" stop-color="#C31162"/>
</linearGradient>
<linearGradient id="paint3_linear_7_3305" x1="16.708" y1="12.5818" x2="26.6683" y2="22.5412" gradientUnits="userSpaceOnUse">
<stop stop-color="#32A071"/>
<stop offset="0.07" stop-color="#2DA771"/>
<stop offset="0.48" stop-color="#15CF74"/>
<stop offset="0.8" stop-color="#06E775"/>
<stop offset="1" stop-color="#00F076"/>
</linearGradient>
</defs>
</svg>
