<svg width="78" height="78" viewBox="0 0 78 78" fill="none" xmlns="http://www.w3.org/2000/svg">
<g clip-path="url(#clip0_8794_6221)">
<path d="M26.5186 65.3161L34.6187 44.1254L20.346 39.5895C18.8586 39.1168 18.4451 37.2019 19.6079 36.1582L48.2429 10.4548C49.8142 9.04451 52.2374 10.7044 51.4817 12.6811L43.3818 33.8717L57.6545 38.4077C59.1419 38.8804 59.5554 40.7952 58.3926 41.839L29.7575 67.5425C28.1808 68.9578 25.763 67.2931 26.5186 65.3161Z" fill="#FFCE3E"/>
<path d="M10.9318 55.2267C10.4185 54.2351 10.8062 53.0151 11.7978 52.5018L16.2471 50.1985C17.2386 49.6852 18.4586 50.0729 18.972 51.0645C19.4853 52.0561 19.0976 53.276 18.106 53.7894L13.6567 56.0927C12.6651 56.6059 11.4452 56.2183 10.9318 55.2267Z" fill="#FEE856"/>
<path d="M26.3223 18.496L24.019 14.0467C23.5057 13.0551 23.8934 11.8352 24.885 11.3218C25.8764 10.8085 27.0964 11.1962 27.6098 12.1878L29.9131 16.6371C30.4264 17.6287 30.0388 18.8485 29.0472 19.362C28.0556 19.8752 26.8356 19.4876 26.3223 18.496Z" fill="#FEE856"/>
<path d="M57.6546 38.4077L43.382 33.8718L51.4819 12.6811C52.2376 10.7044 49.8144 9.04443 48.2431 10.4547L48.0034 10.6699L29.9972 67.3276L58.3927 41.839C59.5555 40.7952 59.1419 38.8804 57.6546 38.4077Z" fill="#FFCB32"/>
<path d="M49.8257 67.5878L47.5224 63.1385C47.0091 62.1469 47.3968 60.927 48.3884 60.4136C49.3799 59.9003 50.5998 60.288 51.1133 61.2796L53.4166 65.7289C53.9299 66.7205 53.5422 67.9403 52.5506 68.4538C51.5592 68.967 50.3389 68.5793 49.8257 67.5878Z" fill="#FFCE3E"/>
<path d="M58.4636 28.7111C57.9503 27.7195 58.3379 26.4996 59.3295 25.9862L63.7789 23.6829C64.7703 23.1696 65.9904 23.5573 66.5037 24.5489C67.017 25.5405 66.6294 26.7603 65.6378 27.2737L61.1884 29.577C60.197 30.0903 58.9768 29.7026 58.4636 28.7111Z" fill="#FFCE3E"/>
</g>
<defs>
<clipPath id="clip0_8794_6221">
<rect width="62" height="62" fill="white" transform="translate(18.8452 0.0668945) rotate(17.6306)"/>
</clipPath>
</defs>
</svg>
