<svg width="63" height="63" viewBox="0 0 63 63" fill="none" xmlns="http://www.w3.org/2000/svg">
<rect x="0.890137" y="0.682617" width="61.93" height="61.93" rx="30.965" fill="#1E2330"/>
<path d="M36.4945 27.7497V35.9704C36.4945 40.0752 33.1508 43.419 29.046 43.419C27.4639 43.419 25.9844 42.9144 24.7786 42.0678C22.8545 40.7166 21.5974 38.4846 21.5974 35.9704C21.5974 31.857 24.9326 28.5218 29.0374 28.5218C29.3795 28.5218 29.713 28.5474 30.0465 28.5902V32.7207H30.0123C29.8669 32.678 29.713 32.6352 29.5591 32.6096H29.4906C29.3367 32.5925 29.1913 32.5668 29.0288 32.5668C27.1475 32.5668 25.6167 34.0976 25.6167 35.9789C25.6167 37.8603 27.1475 39.3911 29.0288 39.3911C30.9102 39.3911 32.441 37.8603 32.441 35.9789V19.876H36.486C36.486 20.2266 36.5202 20.5687 36.58 20.9022C36.8708 22.4415 37.7773 23.767 39.0515 24.5965C39.9409 25.178 40.9842 25.5116 42.113 25.5116V29.5566C40.0216 29.5566 38.0751 28.8834 36.4945 27.7497Z" fill="white"/>
</svg>
