<svg width="63" height="63" viewBox="0 0 63 63" fill="none" xmlns="http://www.w3.org/2000/svg">
<rect x="0.709961" y="0.682617" width="61.93" height="61.93" rx="30.965" fill="#1E2330"/>
<path d="M35.6982 37.6816C30.4185 37.6816 26.123 33.3834 26.1216 28.1022C26.123 26.7634 27.2128 25.6748 28.5483 25.6748C28.6856 25.6748 28.8214 25.6864 28.9515 25.7095C29.2377 25.7572 29.5094 25.8541 29.7594 26.0001C29.7956 26.0218 29.8201 26.0565 29.8259 26.097L30.3838 29.6144C30.391 29.6549 30.378 29.6968 30.3505 29.7272C30.0427 30.0684 29.6496 30.3142 29.2116 30.437L29.0006 30.4963L29.0801 30.7002C29.7999 32.5333 31.2654 33.9979 33.0995 34.7207L33.3033 34.8017L33.3626 34.5906C33.4854 34.1526 33.7311 33.7593 34.0722 33.4514C34.0968 33.4283 34.13 33.4167 34.1633 33.4167C34.1705 33.4167 34.1777 33.4167 34.1864 33.4181L37.7028 33.9762C37.7447 33.9834 37.7794 34.0065 37.8011 34.0427C37.9456 34.2928 38.0425 34.566 38.0916 34.8523C38.1147 34.9795 38.1248 35.114 38.1248 35.2542C38.1248 36.5915 37.0365 37.6801 35.6982 37.6816Z" fill="#FDFDFD"/>
<path d="M45.0607 30.488C44.776 27.2698 43.3018 24.2844 40.9098 22.0825C38.5034 19.8677 35.3815 18.6475 32.1166 18.6475C24.9508 18.6475 19.1204 24.4795 19.1204 31.6475C19.1204 34.0531 19.7838 36.3967 21.0398 38.4381L18.2388 44.6402L27.2069 43.6846C28.7664 44.3236 30.4169 44.6475 32.1151 44.6475C32.5617 44.6475 33.0199 44.6243 33.4795 44.5766C33.8842 44.5332 34.2932 44.4696 34.695 44.3887C40.6959 43.1757 45.0766 37.8482 45.1113 31.7169V31.6475C45.1113 31.2571 45.094 30.8668 45.0593 30.4894L45.0607 30.488ZM27.5523 40.9623L22.5906 41.4914L24.072 38.2082L23.7757 37.8106C23.7541 37.7817 23.7324 37.7528 23.7078 37.7195C22.4215 35.9427 21.7422 33.8435 21.7422 31.6489C21.7422 25.9267 26.3961 21.2715 32.1166 21.2715C37.4758 21.2715 42.0184 25.454 42.4563 30.793C42.4794 31.0793 42.4924 31.367 42.4924 31.6504C42.4924 31.7313 42.491 31.8108 42.4895 31.8961C42.3797 36.6829 39.0367 40.7483 34.3597 41.7835C34.0027 41.863 33.637 41.9237 33.2728 41.9627C32.8942 42.0061 32.5054 42.0278 32.1195 42.0278C30.745 42.0278 29.4095 41.7618 28.1478 41.2355C28.0076 41.1792 27.8703 41.1184 27.7416 41.0563L27.5538 40.9652L27.5523 40.9623Z" fill="#FDFDFD"/>
</svg>
