<!-- by TradingView --><svg width="56" height="56" viewBox="0 0 56 56" xmlns="http://www.w3.org/2000/svg"><path fill="url(#ayeqnjaat)" d="M0 0h56v56H0z"/><path d="M18.18 15.51 28 10l9.82 5.51-3.6 2.04L28 14.07l-6.21 3.48-3.61-2.04Zm19.64 6.96-3.6-2.04L28 23.91l-6.21-3.48-3.61 2.04v4.07l6.2 3.48v6.95L28 39.01l3.61-2.04v-6.95l6.21-3.48v-4.07Zm0 11.03v-4.08l-3.6 2.04v4.07l3.6-2.03Zm2.57 1.44-6.21 3.47v4.08L44 36.97V25.95l-3.61 2.03v6.96Zm-3.61-15.95 3.6 2.04v4.07L44 23.07v-4.08l-3.61-2.04L36.78 19Zm-12.4 20.9v4.07L28 46l3.61-2.04V39.9L28 41.93l-3.61-2.04Zm-6.2-6.4 3.6 2.04v-4.07l-3.6-2.04v4.08Zm6.2-14.5L28 21.03l3.61-2.04L28 16.95 24.39 19Zm-8.77 2.04 3.61-2.04-3.6-2.04L12 19v4.08l3.61 2.03v-4.07Zm0 6.95L12 25.95v11.02l9.82 5.52V38.4l-6.2-3.47v-6.96Z" fill="#F0B90B"/><defs><linearGradient id="ayeqnjaat" x1="10.42" y1="9.71" x2="68.15" y2="76.02" gradientUnits="userSpaceOnUse"><stop stop-color="#1A1E21"/><stop offset="1" stop-color="#06060A"/></linearGradient></defs></svg>