<!-- by TradingView --><svg width="56" height="56" viewBox="0 0 56 56" xmlns="http://www.w3.org/2000/svg"><path fill="#F0F3FA" d="M0 0h56v56H0z"/><path d="M45.98 29.11 26 9v3.09L42.88 29.1v.01L28.04 43.87l-.02-.02-14.84-14.74h-.01L20.45 22H17.3L10 29.1v.01L28.02 47 46 29.12l-.02-.02ZM26 14.21v3.09l11.63 11.82-9.59 9.52-9.6-9.53L25.71 22h-3.16l-7.3 7.1.01.01 11.18 11.11 1.57 1.55 1.59-1.57 11.14-11.07L26 14.21Zm3.56 9 5.94 5.9.01.02-5.93 5.89-1.59 1.57-1.56-1.55-5.97-5.93 5.97-5.93 1.55-1.54 1.58 1.57Zm-5.93 5.9 4.4 4.36 4.36-4.36-4.4-4.36-4.37 4.35.01.01Z" fill="#F5821E"/></svg>