<svg width="2823" height="1042" viewBox="0 0 2823 1042" fill="none" xmlns="http://www.w3.org/2000/svg">
<path d="M2361.89 35.7754L2356.17 93.7832L2251.15 93.6367L2243.97 163.07C2243.87 175.375 2250.17 182.162 2262.86 183.432L2387.52 183.578L2382.1 241.293H2240.89C2196.26 239.047 2176.63 213.412 2182 164.389L2189.33 93.1973L2172.48 93.4902L2178.34 35.7754H2361.89ZM2409.35 35.6289H2470.58L2462.96 111.508L2539.13 111.215L2547.19 35.1895L2608.42 35.6289L2587.91 241.586L2525.95 241.293L2534.15 161.898H2457.83L2450.07 241H2388.84L2409.35 35.6289ZM2802.37 241H2657.93C2616.53 238.559 2599 204.428 2605.34 138.607C2611.79 72.6895 2637.42 38.6074 2682.25 36.3613H2822.73L2817.75 86.166L2693.23 86.3125C2682.69 85.9219 2676.39 88.5586 2674.34 94.2227L2669.36 111.801L2815.4 111.947L2810.13 161.166L2665.26 160.58L2665.4 172.152C2665.79 181.918 2669.31 187.191 2675.95 187.973L2807.64 187.826L2802.37 241Z" fill="white"/>
<path d="M373.33 661H113.086C38.2031 656.605 6.5625 594.994 18.1641 476.166C29.7656 357.338 75.9082 295.902 156.592 291.859L410.508 292.123L401.016 382.035H177.158C160.459 382.211 148.242 388.1 140.508 399.701C122.578 445.404 115.459 491.107 119.15 536.811C121.084 551.4 129.873 560.717 145.518 564.76L285.791 565.023L296.865 457.182L393.633 457.445L373.33 661ZM427.383 291.332H537.598L523.887 427.914L660.996 427.387L675.498 290.541L785.713 291.332L748.799 662.055L637.266 661.527L652.031 518.617H514.658L500.684 661H390.469L427.383 291.332ZM767.783 659.945L792.832 408.666C804.434 333.08 850.049 293.617 929.678 290.277L1054.66 290.541C1127.08 295.463 1161.09 334.574 1156.7 407.875L1131.39 660.473H1033.3L1044.64 548.148L880.635 547.357L869.561 659.945H767.783ZM894.609 416.576L890.391 455.863H1054.13L1057.56 425.014C1062.83 396.537 1054.57 380.629 1032.77 377.289L933.633 377.553C907.266 378.256 894.258 391.264 894.609 416.576ZM1150.11 662.582L1187.29 291.596H1438.04C1510.46 290.014 1544.65 329.301 1540.61 409.457L1515.29 662.318H1416.94L1441.73 430.551C1446.12 406.645 1437.25 395.482 1415.1 397.064H1278.52L1252.15 662.582H1150.11ZM1531.38 659.945L1556.43 408.666C1568.03 333.08 1613.64 293.617 1693.27 290.277L1818.25 290.541C1890.67 295.463 1924.69 334.574 1920.29 407.875L1894.98 660.473H1796.89L1808.23 548.148L1644.23 547.357L1633.15 659.945H1531.38ZM1658.2 416.576L1653.98 455.863H1817.72L1821.15 425.014C1826.43 396.537 1818.16 380.629 1796.37 377.289L1697.23 377.553C1670.86 378.256 1657.85 391.264 1658.2 416.576ZM1951.41 292.387H2059.25L2022.6 661.527H1912.38L1951.41 292.387ZM2043.43 659.945L2068.48 408.666C2080.08 333.08 2125.69 293.617 2205.32 290.277L2330.3 290.541C2402.72 295.463 2436.74 334.574 2432.34 407.875L2407.03 660.473H2308.95L2320.28 548.148L2156.28 547.357L2145.21 659.945H2043.43ZM2170.25 416.576L2166.04 455.863H2329.78L2333.2 425.014C2338.48 396.537 2330.21 380.629 2308.42 377.289L2209.28 377.553C2182.91 378.256 2169.9 391.264 2170.25 416.576ZM2425.75 662.582L2462.93 291.596H2713.68C2786.1 290.014 2820.29 329.301 2816.25 409.457L2790.94 662.318H2692.59L2717.37 430.551C2721.77 406.645 2712.89 395.482 2690.74 397.064H2554.16L2527.79 662.582H2425.75Z" fill="white"/>
<path d="M278.818 751.508L258.164 958.051L73.8867 957.611C33.1641 958.783 13.877 937.006 16.0254 892.279L30.2344 751.654L82.3828 751.508L69.9316 876.312C67.002 891.742 71.4941 899.262 83.4082 898.871L110.947 898.725L125.889 751.654H177.744L163.096 899.164H207.627L222.275 751.508H278.818ZM475.254 956H330.82C289.414 953.559 271.885 919.428 278.232 853.607C284.678 787.689 310.312 753.607 355.137 751.361H495.615L490.635 801.166L366.123 801.312C355.576 800.922 349.277 803.559 347.227 809.223L342.246 826.801L488.291 826.947L483.018 876.166L338.145 875.58L338.291 887.152C338.682 896.918 342.197 902.191 348.838 902.973L480.527 902.826L475.254 956ZM503.379 751.215H645.322C684.678 754.438 704.6 772.162 705.088 804.389C704.404 824.604 698.105 840.082 686.191 850.824C701.621 860.004 707.529 877.24 703.916 902.533C698.35 938.568 671.445 956.342 623.203 955.854L483.457 956L503.379 751.215ZM550.693 906.488L621.445 906.635C632.676 906.244 638.975 902.094 640.342 894.184C641.807 886.176 636.143 881.537 623.35 880.268L553.33 879.535L550.693 906.488ZM557.725 829.73L628.477 829.877C639.707 829.486 646.006 825.336 647.373 817.426C648.838 809.516 643.467 804.633 631.26 802.777H560.361L557.725 829.73Z" fill="white"/>
</svg>
