<!-- by TradingView --><svg width="56" height="56" viewBox="0 0 56 56" xmlns="http://www.w3.org/2000/svg"><path fill="#005B82" d="M0 0h56v56H0z"/><path d="m11.79 23 .17-1H7.93a.96.96 0 0 0-.91.73l-1.55 8.52c-.08.41.2.75.63.75h4.39l.17-1H6.88l.8-4h3.06l.17-1H7.84l.54-3h3.41ZM13.77 32c-1.77 0-2.8-1.51-2.34-4 .47-2.54 2.05-4 3.86-4 .99 0 1.47.3 1.7.51l-.46.74a1.66 1.66 0 0 0-1.14-.38c-1.47 0-2.28 1.28-2.61 3.08-.34 1.85.11 3.12 1.42 3.12.56 0 .97-.17 1.3-.37l.19.79c-.37.27-1.01.51-1.92.51ZM20.7 24.8c-1.56 0-2.16 1.65-2.45 3.2-.29 1.57-.25 3.13 1.27 3.13 1.55 0 2.13-1.58 2.41-3.12.3-1.55.31-3.2-1.24-3.2ZM19.35 32c-2.21 0-2.85-1.73-2.44-4 .43-2.3 1.73-4 3.9-4 2.24 0 2.87 1.7 2.44 4-.42 2.27-1.7 4-3.9 4ZM35.54 27.48c-2.1.24-3.39.66-3.68 2.21-.2 1.12.43 1.58 1.64 1.58.5 0 1.02-.08 1.38-.26l.66-3.53ZM33.26 32c-2.11 0-2.93-.87-2.67-2.27.38-2.05 2.5-2.65 5.07-2.9l.08-.47c.22-1.19-.46-1.53-1.5-1.53-.79 0-1.56.27-2.05.49l-.18-.75a6.26 6.26 0 0 1 2.6-.57c1.5 0 2.7.61 2.36 2.5l-.92 4.96c-.68.33-1.67.54-2.8.54ZM41.63 32l1.03-5.64c.13-.73-.04-1.53-1.42-1.53-.75 0-1.14.1-1.59.28L38.4 32h-1.33l1.36-7.45a7.7 7.7 0 0 1 3.06-.55c2.26 0 2.7 1.2 2.5 2.33L42.96 32h-1.33Z" fill="#fff"/><path d="M49.96 34H5l.04-1H50l-.04 1Z" fill="#BED600"/><path d="M29.04 27.87c-.36 1.97-1.27 3.3-2.94 3.3-.42 0-.83-.04-1.1-.18l1.1-5.96c.4-.2.77-.3 1.37-.3 1.54 0 1.89 1.44 1.57 3.14Zm-1.1-3.9c-.8 0-1.28.16-1.72.37l.7-3.8-1.46.82-1.86 10.1c.43.3 1.23.54 2.33.54 2.4 0 4-1.67 4.45-4.17.43-2.35-.58-3.85-2.44-3.85ZM51 24h-1.38l-3.55 3.66h-.04l.9-5.12c.91-5.07-4.56-6.14-10.29-5.27-3.88.6-7.31 2.15-7.31 2.15s4.48-1.57 8.42-1.8c4.99-.28 8.89.48 7.75 5.75L43.97 32h1.3l.73-4.18h.03L48.4 32h1.5l-2.64-4.31L51 24Z" fill="#fff"/></svg>