<!-- by TradingView --><svg width="56" height="56" viewBox="0 0 56 56" xmlns="http://www.w3.org/2000/svg"><path fill="url(#abqhs04xr)" d="M0 0h56v56H0z"/><path d="M39.24 12.34 41 16.57l-1.38 1.13c5.59 18.33-11.3 29.1-12.24 28.08 7.94-5.9 13.48-14.54 10.92-26.99l-.86.25c2.58 9.17-2.1 19.8-9.72 26.09-1.48 1.13-2.65 1.45-3.56-.86L15.6 20.59c-.88-.1-2.83-1.97-.52-4.38l-.16-2.15c2.03-2.54 6.31-2.34 8.74-1.46 6.6 3.12 11.74 2.43 15.57-.26Zm-18.75 6L21.76 16c-.51-1.11-2.85-1.24-2.17.72l.9 1.61Zm6.39 11.94 2.57-5.26c3.37-5.97 1.53-6.03.8-5.14L26.2 28.6l.68 1.67Zm4.49-2.52c4.5-9.44 2.06-7.82 1.6-7.47l-5.19 11.44.9 1.72 2.69-5.69Zm-5.85-.17L28.1 22c1.55-3.58.27-3.86-.47-2.97l-3 6.73.9 1.83Zm-1.7-3.23 2.52-5.53c.48-.76-.22-1.95-1.23-.64l-2.13 4.4.85 1.77Zm-1.65-3.07 1.91-3.64c.18-.64-.63-2.42-1.4-.59l-1.34 2.7.83 1.53Zm-4.01-1.64 9.32 22.79c5.25-5.22 10.38-12.43 8.51-21.92l-6.4 14.7 1.17 2.31-2.61 2.57-9.24-22c-1.3-2.12-3.34-1.44-3.69-.12-.34 1.97 1.87 2.3 2.94 1.67Zm3.46-5.84h.03c6.9 4.12 12.73 4.95 17.37 2.11l-.1-.81C34.5 18 28.73 17 22.12 13.59l-.46.21a4.93 4.93 0 0 0-.2-.11l.17.12Zm-5.2 3.64c.14-.05.27-.07.4-.07a1.02 1.02 0 0 1 .74.26.97.97 0 0 1 .32.7.94.94 0 0 1-.3.7 1 1 0 0 1-.74.27 1.02 1.02 0 0 1-.74-.26.97.97 0 0 1-.31-.7.94.94 0 0 1 .3-.7 1 1 0 0 1 .34-.2Z" fill="#C99424"/><defs><linearGradient id="abqhs04xr" x1="10.42" y1="9.71" x2="68.15" y2="76.02" gradientUnits="userSpaceOnUse"><stop stop-color="#1A1E21"/><stop offset="1" stop-color="#06060A"/></linearGradient></defs></svg>