<svg width="21" height="20" viewBox="0 0 21 20" fill="none" xmlns="http://www.w3.org/2000/svg">
<path d="M10.25 17.5002C10.6193 17.5002 10.9484 17.3379 11.1745 17.2016C11.4235 17.0514 11.6756 16.8527 11.916 16.6404C12.3987 16.2139 12.913 15.6612 13.3743 15.1299C13.8391 14.5945 14.2667 14.0616 14.5769 13.664C14.7309 13.4667 14.9942 13.1181 15.0851 12.9977L15.0876 12.9944C15.3605 12.6238 15.2814 12.1022 14.9108 11.8292C14.5402 11.5563 14.0186 11.6355 13.7457 12.006C13.6619 12.117 13.4124 12.4472 13.263 12.6386C12.9636 13.0222 12.5554 13.531 12.1158 14.0372C11.7696 14.436 11.4139 14.8217 11.0833 15.1405L11.0833 3.33356C11.0833 2.87333 10.7102 2.50023 10.25 2.50023C9.78976 2.50023 9.41667 2.87333 9.41667 3.33356L9.41667 15.1405C9.08615 14.8217 8.73045 14.436 8.38421 14.0372C7.94464 13.531 7.53637 13.0222 7.23698 12.6386C7.08763 12.4472 6.83814 12.117 6.75434 12.006C6.4814 11.6355 5.95978 11.5563 5.58922 11.8292C5.21863 12.1022 5.13947 12.6238 5.41239 12.9944L5.41473 12.9975C5.5056 13.1178 5.76909 13.4667 5.92306 13.664C6.23335 14.0616 6.66086 14.5945 7.1257 15.1299C7.58695 15.6612 8.10133 16.2139 8.58398 16.6404C8.82436 16.8527 9.07649 17.0514 9.3255 17.2016C9.55163 17.3379 9.88069 17.5002 10.25 17.5002C10.25 17.5002 10.25 17.5002 10.25 17.5002Z" fill="#FF0606"/>
</svg>
