<svg width="20" height="20" viewBox="0 0 20 20" fill="none" xmlns="http://www.w3.org/2000/svg">
<path d="M10 2.49951C10.3693 2.49953 10.6984 2.66188 10.9245 2.7982C11.1735 2.94831 11.4256 3.14701 11.666 3.3594C12.1487 3.78586 12.663 4.33859 13.1243 4.86984C13.5891 5.40523 14.0167 5.93818 14.3269 6.33578C14.4809 6.53308 14.7442 6.8817 14.8351 7.00202L14.8376 7.00534C15.1105 7.37592 15.0314 7.89759 14.6608 8.17051C14.2902 8.44342 13.7686 8.36427 13.4957 7.99375C13.4119 7.8828 13.1624 7.55254 13.013 7.36115C12.7136 6.97751 12.3054 6.46879 11.8658 5.96251C11.5196 5.56372 11.1639 5.17805 10.8333 4.85922L10.8333 16.6662C10.8333 17.1264 10.4602 17.4995 10 17.4995C9.53976 17.4995 9.16667 17.1264 9.16667 16.6662L9.16667 4.85922C8.83615 5.17805 8.48045 5.56373 8.13421 5.96251C7.69464 6.46879 7.28637 6.97751 6.98698 7.36116C6.83763 7.55254 6.58814 7.8828 6.50434 7.99375C6.2314 8.36427 5.70978 8.44342 5.33922 8.17051C4.96863 7.89759 4.88947 7.37592 5.16239 7.00534L5.16473 7.00225C5.2556 6.88193 5.51909 6.53308 5.67306 6.33578C5.98335 5.93818 6.41086 5.40523 6.8757 4.86984C7.33695 4.33859 7.85133 3.78586 8.33398 3.3594C8.57436 3.14701 8.82649 2.94831 9.0755 2.7982C9.30163 2.66188 9.63069 2.49953 10 2.49951C9.99999 2.49951 10 2.49951 10 2.49951Z" fill="#13D14C"/>
</svg>
