<svg width="1769" height="353" viewBox="0 0 1769 353" fill="none" xmlns="http://www.w3.org/2000/svg">
<path d="M58.1247 173.125C61.2497 167.813 63.1247 161.875 63.7497 155.938C64.6872 149.688 64.6872 143.75 64.6872 137.5C64.6872 107.813 64.6872 78.125 64.6872 48.4375C58.7497 54.0625 54.0622 60.9375 50.9372 68.4375C44.9997 81.5625 43.7497 96.25 44.0622 110.625C44.3747 125.625 45.9372 140.625 48.4372 155.313C49.6872 163.125 51.5622 171.25 53.7497 178.75C55.3122 177.188 56.8747 175.313 58.1247 173.125ZM178.437 180.313C178.437 179.063 178.437 177.5 178.125 176.25L130.625 200.312C130.625 213.125 130.625 225.625 130.625 238.438C131.25 238.438 131.875 238.125 132.5 238.125C145.625 235.312 157.5 227.813 165.625 217.188C173.75 206.875 178.125 193.438 178.437 180.313ZM130.625 167.5V190.313L177.187 166.563C175.937 160 173.75 153.438 170.625 147.188L130.625 167.5ZM130.625 157.5L166.25 139.375C165 137.5 163.437 135.625 161.875 133.75C153.75 123.75 142.812 115.938 130.625 111.25C130.625 126.563 130.625 142.188 130.625 157.5ZM121.562 239.375C121.562 197.5 121.562 155.938 121.562 114.375L105 130.938V135.938C105 143.125 104.687 150.313 102.5 156.875C100.312 163.75 96.5622 169.688 91.8747 174.688C85.3122 181.875 76.8747 186.875 68.1247 190.313C65.3122 191.563 62.1872 192.5 59.3747 193.438C59.9997 195 60.6247 196.563 61.5622 197.813C68.1247 210.938 77.8122 222.812 90.3122 230.312C99.6872 236.25 110.625 239.375 121.562 239.375ZM105 31.25V93.125V118.125L161.562 62.1875C151.875 57.5 142.187 52.5 132.812 46.875C124.062 41.875 115.937 36.5625 107.812 30.625C107.5 30.625 107.5 30.625 107.187 30.625C106.562 30.9375 105.625 30.9375 105 31.25ZM158.125 78.125C178.437 82.5 196.875 95.625 207.5 113.438C218.75 132.5 221.25 156.875 214.687 178.125C208.437 197.5 195.625 214.687 179.375 226.875C164.687 238.125 147.187 245.937 129.062 249.062C110.625 252.187 91.5622 250.938 74.0622 245C52.1872 237.813 32.4997 223.125 19.6872 203.75C6.56223 184.687 -0.000258575 161.25 0.937242 137.813C1.87474 111.563 12.4997 85.625 29.6872 65.3125C49.3747 42.5 78.1247 27.8125 108.125 24.375L138.75 0C148.437 7.81251 159.062 14.6875 170.312 20.625C177.812 24.375 185.625 27.8125 193.437 30.625L203.75 20.3125L210 26.875L158.125 78.125ZM299.262 205.938L309.262 215.937L318.95 209.375L324.575 216.25L285.825 243.438L253.637 215.937L241.762 223.438L236.137 216.25L257.387 202.813V60.625C257.387 59.0625 257.387 57.5 256.762 55.9375C256.45 54.375 255.825 52.8125 254.887 51.5625C253.637 49.6875 251.762 48.125 249.575 47.1875C247.075 45.9375 244.887 45 242.387 44.0625V39.6875L293.325 3.75001H299.262V119.688L338.012 83.125L371.137 110.625L383.637 100.625L388.95 107.5L375.512 118.438V200C375.512 208.438 375.512 216.875 373.95 225.312C372.387 233.75 369.575 241.875 365.2 249.062C358.637 259.375 349.262 267.5 338.012 272.5C326.45 277.812 313.325 279.688 300.825 277.813V270.312C307.387 268.75 313.95 265.313 318.95 260.625C324.575 255 328.325 248.125 330.825 240.625C334.887 228.437 335.2 215.625 335.2 202.813V128.125L316.45 112.5L299.262 128.75V205.938ZM542.487 208.75L544.05 215L500.612 244.688L476.55 220.937L443.737 244.688C430.925 243.125 418.425 236.875 410.3 226.875C404.675 220 401.237 210.937 401.55 201.875C401.862 195.937 404.05 190.313 407.175 185C409.987 180 414.05 175.625 418.425 171.875C424.675 166.25 431.55 161.875 439.05 157.813C437.487 157.188 435.925 156.563 434.362 155.938C427.175 152.5 420.612 147.813 416.237 141.25C414.05 137.813 412.487 133.75 412.175 129.375C411.862 125.625 412.8 121.875 414.362 118.125C415.925 114.688 418.425 111.875 421.237 109.063C424.362 106.563 428.112 104.375 431.862 102.5L466.237 84.6875L512.175 114.375L524.987 104.063L530.3 110.938L514.05 124.063V202.813L529.05 217.812L542.487 208.75ZM475.3 160.313C475.3 150.625 475.3 140.625 475.3 130.938L436.237 106.875C433.737 108.125 431.55 109.063 429.675 110.625C427.175 112.5 424.987 115 423.425 117.5C421.862 120.313 421.237 123.438 421.237 126.563C421.237 130.938 423.112 135 425.925 138.125C429.675 143.125 435.3 146.563 440.925 149.063C446.55 151.875 452.487 153.75 458.425 155.625C463.737 157.5 469.362 159.063 475.3 160.313ZM475.3 169.375C469.05 167.5 462.8 165.625 456.55 163.75C452.487 162.5 448.425 161.25 444.362 160C442.175 164.063 440.3 168.438 439.675 173.125C438.112 182.5 440.3 192.5 444.675 200.938C446.862 205 449.362 208.437 452.8 211.562C456.237 214.375 460.3 216.875 464.675 217.5C468.112 218.125 471.862 218.125 475.3 216.875C475.3 200.938 475.3 185.313 475.3 169.375ZM711.45 207.5L717.387 216.25L670.825 247.813L639.262 219.375L649.887 208.75V131.875L627.387 112.5L613.95 123.125V208.75L627.387 220.937L597.387 247.813L561.45 219.375L573.637 208.75V125.938L561.45 112.5L549.575 120L545.2 113.75L588.637 84.0625L612.7 110.938L646.762 84.0625L682.387 114.375L695.512 103.75L701.137 110.313L685.825 122.813V204.375L699.262 216.25L711.45 207.5ZM854.987 208.75L856.55 215L813.112 244.688L789.05 220.937L756.237 244.688C743.425 243.125 730.925 236.875 722.8 226.875C717.175 220 713.737 210.937 714.05 201.875C714.362 195.937 716.55 190.313 719.675 185C722.487 180 726.55 175.625 730.925 171.875C737.175 166.25 744.05 161.875 751.55 157.813C749.987 157.188 748.425 156.563 746.862 155.938C739.675 152.5 733.112 147.813 728.737 141.25C726.55 137.813 724.987 133.75 724.675 129.375C724.362 125.625 725.3 121.875 726.862 118.125C728.425 114.688 730.925 111.875 733.737 109.063C736.862 106.563 740.612 104.375 744.362 102.5L778.737 84.6875L824.675 114.375L837.487 104.063L842.8 110.938L826.55 124.063V202.813L841.55 217.812L854.987 208.75ZM787.8 160.313C787.8 150.625 787.8 140.625 787.8 130.938L748.737 106.875C746.237 108.125 744.05 109.063 742.175 110.625C739.675 112.5 737.487 115 735.925 117.5C734.362 120.313 733.737 123.438 733.737 126.563C733.737 130.938 735.612 135 738.425 138.125C742.175 143.125 747.8 146.563 753.425 149.063C759.05 151.875 764.987 153.75 770.925 155.625C776.237 157.5 781.862 159.063 787.8 160.313ZM787.8 169.375C781.55 167.5 775.3 165.625 769.05 163.75C764.987 162.5 760.925 161.25 756.862 160C754.675 164.063 752.8 168.438 752.175 173.125C750.612 182.5 752.8 192.5 757.175 200.938C759.362 205 761.862 208.437 765.3 211.562C768.737 214.375 772.8 216.875 777.175 217.5C780.612 218.125 784.362 218.125 787.8 216.875C787.8 200.938 787.8 185.313 787.8 169.375ZM916.45 122.188V206.875C917.7 207.187 918.637 207.812 919.575 208.125C930.2 212.187 940.512 216.875 950.825 221.563V128.75L930.2 111.875L916.45 122.188ZM880.2 202.5V124.375C880.512 122.5 880.2 120.313 879.262 118.125C878.325 116.25 877.075 114.688 875.2 113.438C873.325 111.875 870.825 110.938 868.012 110.938C865.512 110.938 863.012 111.563 860.825 113.125L857.7 108.125L895.512 82.8125C900.512 85.9375 904.887 90 908.637 94.375C911.762 97.8125 914.262 101.875 916.45 106.25V111.875L955.825 82.5L986.137 109.063L995.825 101.25L1001.14 108.125L989.575 117.5V204.688C979.887 210 970.512 215.937 961.45 222.187C953.325 228.125 945.2 234.375 937.7 240.625C930.825 236.875 923.95 233.125 916.45 230V244.375C916.45 246.875 916.45 249.062 916.762 251.562C917.387 253.75 918.012 256.25 919.262 258.125C920.2 260.312 921.762 261.875 923.637 263.438C925.825 265 928.325 265.937 930.825 266.25V270.625L886.137 297.5H880.2V218.75C874.887 217.5 869.575 216.875 864.262 215.937L880.2 202.5ZM1064.09 195.313L1100.03 219.375V129.375L1064.09 105.625V195.313ZM1013.16 222.187L1007.84 215.313L1023.78 202.5C1023.78 175.625 1023.78 148.75 1023.78 121.875L1094.09 81.5625L1139.09 115.938V201.25L1070.03 243.438C1055.34 232.813 1040.66 222.187 1026.28 211.562L1013.16 222.187ZM1218.06 205.938L1229.93 217.812L1238.99 210.313L1243.37 216.25L1204.62 243.438L1171.49 215L1159.62 222.5L1155.24 216.25L1176.18 202.813V60.625C1176.18 59.0625 1176.18 57.5 1175.56 55.9375C1175.24 54.375 1174.62 52.8125 1173.99 51.5625C1172.43 49.6875 1170.56 48.125 1168.37 47.1875C1165.87 45.9375 1163.68 45 1161.18 44.0625V39.6875L1212.12 3.75001H1218.06V205.938ZM1337.47 207.5L1344.97 213.438L1299.97 244.688L1269.97 217.812L1259.66 225.312L1254.97 219.375L1274.66 205.938V123.438L1264.03 110L1252.16 117.5L1247.47 111.563L1289.66 83.125L1313.41 111.563V205.938L1324.03 216.25L1337.47 207.5ZM1264.66 40.9375L1294.34 14.6875L1320.91 45L1291.22 71.25L1264.66 40.9375ZM1408.88 205.938L1423.57 220.625L1434.19 215L1438.57 220.937L1395.44 243.438L1362.63 215L1350.76 222.5L1346.07 216.25L1367.01 202.813V126.563C1367.01 125 1367.01 123.438 1366.69 121.875C1366.38 120.313 1365.76 119.063 1364.82 117.5C1363.57 115.625 1361.38 114.063 1359.19 113.125C1357.01 111.875 1354.51 111.563 1352.01 111.563V107.188L1402.94 55.9375H1408.88V91.875H1446.07L1431.38 109.063H1408.88V205.938ZM1588.63 208.75L1590.19 215L1546.76 244.688L1522.69 220.937L1489.88 244.688C1477.07 243.125 1464.57 236.875 1456.44 226.875C1450.82 220 1447.38 210.937 1447.69 201.875C1448.01 195.937 1450.19 190.313 1453.32 185C1456.13 180 1460.19 175.625 1464.57 171.875C1470.82 166.25 1477.69 161.875 1485.19 157.813C1483.63 157.188 1482.07 156.563 1480.51 155.938C1473.32 152.5 1466.76 147.813 1462.38 141.25C1460.19 137.813 1458.63 133.75 1458.32 129.375C1458.01 125.625 1458.94 121.875 1460.51 118.125C1462.07 114.688 1464.57 111.875 1467.38 109.063C1470.51 106.563 1474.26 104.375 1478.01 102.5L1512.38 84.6875L1558.32 114.375L1571.13 104.063L1576.44 110.938L1560.19 124.063V202.813L1575.19 217.812L1588.63 208.75ZM1521.44 160.313C1521.44 150.625 1521.44 140.625 1521.44 130.938L1482.38 106.875C1479.88 108.125 1477.69 109.063 1475.82 110.625C1473.32 112.5 1471.13 115 1469.57 117.5C1468.01 120.313 1467.38 123.438 1467.38 126.563C1467.38 130.938 1469.26 135 1472.07 138.125C1475.82 143.125 1481.44 146.563 1487.07 149.063C1492.69 151.875 1498.63 153.75 1504.57 155.625C1509.88 157.5 1515.51 159.063 1521.44 160.313ZM1521.44 169.375C1515.19 167.5 1508.94 165.625 1502.69 163.75C1498.63 162.5 1494.57 161.25 1490.51 160C1488.32 164.063 1486.44 168.438 1485.82 173.125C1484.26 182.5 1486.44 192.5 1490.82 200.938C1493.01 205 1495.51 208.437 1498.94 211.562C1502.38 214.375 1506.44 216.875 1510.82 217.5C1514.26 218.125 1518.01 218.125 1521.44 216.875C1521.44 200.938 1521.44 185.313 1521.44 169.375ZM1757.59 207.5L1763.53 216.25L1716.97 247.813L1685.41 219.375L1696.03 208.75V131.875L1673.53 112.5L1660.09 123.125V208.75L1673.53 220.937L1643.53 247.813L1607.59 219.375L1619.78 208.75V125.938L1607.59 112.5L1595.72 120L1591.34 113.75L1634.78 84.0625L1658.84 110.938L1692.91 84.0625L1728.53 114.375L1741.66 103.75L1747.28 110.313L1731.97 122.813V204.375L1745.41 216.25L1757.59 207.5Z" fill="black"/>
<path d="M13.6895 353L19.5053 327.858L0 310.947L25.7684 308.711L35.7895 285L45.8105 308.711L71.5789 310.947L52.0737 327.858L57.8895 353L35.7895 339.668L13.6895 353Z" fill="black"/>
<rect x="85" y="302" width="266" height="34" fill="#CE1126"/>
<rect x="351" y="302" width="266" height="34" fill="#FCD116"/>
<rect x="617" y="302" width="265" height="34" fill="#006B3F"/>
</svg>
