<svg width="400" height="400" viewBox="0 0 400 400" fill="none" xmlns="http://www.w3.org/2000/svg">
<rect width="400" height="400" fill="#111111"/>
<g clip-path="url(#clip0_57_32)">
<path d="M138.901 198.816C138.901 197.929 138.901 196.745 138.901 195.561L139.197 122.469L105.166 99.6836V177.806L138.901 198.816ZM139.493 207.102L112.268 226.041L69.656 196.153V110.929L136.238 72.7551L175.003 101.755L187.727 91.6939L193.054 98.204L178.85 109.449C178.85 134.602 178.85 159.755 178.85 184.908C178.85 188.755 178.85 192.602 179.442 196.449C180.034 200.296 181.217 204.143 182.993 207.398C184.472 210.061 185.952 212.724 186.544 215.388C187.431 218.347 187.431 221.306 186.84 224.265C185.952 227.224 184.176 229.888 181.809 231.959C179.738 234.031 177.074 235.51 174.411 236.99C172.044 238.173 169.38 239.949 167.013 241.429L112.268 280.194C106.942 272.5 98.656 266.582 89.4825 264.806C79.1254 262.439 67.8805 265.102 59.5948 271.316L55.4519 268.653C59.0029 259.184 65.2172 251.194 73.207 245.275C81.1968 239.653 90.9621 236.102 100.727 235.806C114.931 235.51 129.431 241.133 139.197 251.49C141.268 251.194 143.34 250.306 144.819 249.122C146.595 247.939 147.778 246.163 148.666 244.092C149.554 242.316 150.146 239.949 149.85 237.582C149.85 235.51 149.258 233.143 148.666 231.071C147.187 226.929 144.819 223.082 143.044 218.939C141.564 215.388 140.085 211.541 139.493 207.398V207.102ZM259.423 111.224V191.418C260.607 191.714 261.495 192.306 262.382 192.602C272.444 196.449 282.209 200.888 291.974 205.326V117.439L272.444 101.459L259.423 111.224ZM225.097 187.275V113.296C225.392 111.52 225.097 109.449 224.209 107.378C223.321 105.602 222.137 104.122 220.362 102.939C218.586 101.459 216.219 100.571 213.556 100.571C211.188 100.571 208.821 101.163 206.75 102.643L203.79 97.9082L239.597 73.9388C244.331 76.898 248.474 80.7449 252.025 84.8878C254.984 88.1428 257.352 91.9898 259.423 96.1326V101.459L296.709 73.6429L325.413 98.7959L334.586 91.3979L339.617 97.9082L328.668 106.786V189.347C319.495 194.378 310.617 200 302.035 205.918C294.341 211.541 286.648 217.459 279.546 223.378C273.035 219.826 266.525 216.275 259.423 213.316V226.929C259.423 229.296 259.423 231.367 259.719 233.735C260.311 235.806 260.903 238.173 262.086 239.949C262.974 242.02 264.454 243.5 266.229 244.98C268.301 246.459 270.668 247.347 273.035 247.643V251.786L230.719 277.235H225.097V202.663C220.066 201.48 215.035 200.888 210.005 200L225.097 187.275Z" fill="white"/>
</g>
<path d="M63.7921 327.245L67.3354 311.927L55.4519 301.625L71.1512 300.262L77.2564 285.816L83.3617 300.262L99.0609 301.625L87.1775 311.927L90.7207 327.245L77.2564 319.123L63.7921 327.245Z" fill="white"/>
<rect x="114.636" y="297.653" width="76.9388" height="17.7551" fill="#CE1126"/>
<rect x="191.574" y="297.653" width="76.9388" height="17.7551" fill="#FCD116"/>
<rect x="268.513" y="297.653" width="76.9388" height="17.7551" fill="#006B3F"/>
<defs>
<clipPath id="clip0_57_32">
<rect width="290" height="213.061" fill="white" transform="translate(55.4519 72.7551)"/>
</clipPath>
</defs>
</svg>
