<!-- by TradingView --><svg width="56" height="56" xmlns="http://www.w3.org/2000/svg"><path fill="#6B4732" d="M0 0h56v56H0z"/><path d="M17.697 29.235c.337-7.89 2.926-11.94 5.12-13.89.655-.582 1.472.08 1.242.925-3.08 11.262-1.378 20.663.513 26.94.3.994-.808 1.682-1.454.869-3.65-4.596-5.724-10.507-5.421-14.844zm9.534-14.425c-3.379 9.455-1.398 22.403.195 29.634.222 1.006 1.563.995 1.779-.012 2.536-11.8 2.003-20.115 1.271-23.125-.11-.452.163-1.73 1.22-1.927 1.058-.197 1.763.922 1.823 1.378 1.13 8.64.095 16.811-1.362 22.195-.279 1.032.95 1.818 1.595.965 3.556-4.7 5.565-11 5.425-15.582-.207-6.736-2.817-10.927-4.616-12.768-1.44-1.473-3.705-2.113-4.7-2.047.138-2.215-.26-3.826-1.138-4.968-.954-1.243-2.706-2.199-3.244-.767-.339.903 1.41 1.443 1.75 2.228.699 1.3.293 3.74.002 4.796z" fill="#fff"/></svg>